<?xml version="1.0" standalone="no"?>
<!DOCTYPE svg PUBLIC "-//W3C//DTD SVG 1.1//EN" "http://www.w3.org/Graphics/SVG/1.1/DTD/svg11.dtd" >
<svg xmlns="http://www.w3.org/2000/svg">
<metadata>
Generated by SVGconv.
Copyright   : Copyright 1996, 2006 Double Alex Font Studio. All rights reserved.
Foundry     : Double Alex Font Studio
</metadata>
<defs>
<font id="RotondaWeb-Regular" horiz-adv-x="518" >
<font-face units-per-em="1000" ascent="973" descent="227" />
<missing-glyph horiz-adv-x="500" />
<glyph unicode="&#32;" horiz-adv-x="250" />
<glyph unicode="&#33;" horiz-adv-x="296" d="M192 238q0 -22 -12 -34.5q-12 -12.5 -32 -12.5q-20 0 -32 12.5q-12 12.5 -12 34.5v433q0 22 12 34.5q12 12.5 32 12.5q20 0 32 -12.5q12 -12.5 12 -34.5zM199 45q0 -21 -15 -36q-15 -15 -36 -15q-21 0 -36 15q-15 15 -15 36q0 21 15 36q15 15 36 15q21 0 36 -15t15 -36z" />
<glyph unicode="&#34;" horiz-adv-x="334" d="M279 539q0 -19 -10 -31q-10 -12 -31 -12q-21 0 -31 12q-10 12 -10 31v136q0 19 10 31q10 12 31 12q21 0 31 -12q10 -12 10 -31zM137 539q0 -19 -10 -31q-10 -12 -31 -12q-21 0 -31 12q-10 12 -10 31v136q0 19 10 31q10 12 31 12q21 0 31 -12q10 -12 10 -31z" />
<glyph unicode="&#35;" horiz-adv-x="536" d="M522 463q0 -17 -12 -25q-12 -8 -29 -8h-70l-21 -148h61q17 0 29 -8q12 -8 12 -25q0 -17 -12 -25q-12 -8 -29 -8h-70l-26 -186q-2 -17 -10 -26.5q-8 -9.5 -28 -9.5q-18 0 -26 10q-8 10 -8 24q0 8 1.5 18q1.5 10 3.5 24l20 146h-119l-26 -186q-2 -17 -10 -26.5q-8 -9.5 -28 -9.5q-18 0 -26 10q-8 10 -8 24q0 8 1.5 18q1.5 10 3.5 24l20 146h-61q-17 0 -29 8q-12 8 -12 25q0 17 12 25q12 8 29 8h70l21 148h-61q-17 0 -29 8q-12 8 -12 25q0 17 12 25q12 8 29 8h70l26 186q2 17 10 26.5q8 9.5 28 9.5q18 0 26 -10q8 -10 8 -24q0 -8 -1.5 -18q-1.5 -10 -3.5 -24l-20 -146h119l26 186q2 17 10 26.5q8 9.5 28 9.5q18 0 26 -10q8 -10 8 -24q0 -8 -1.5 -18q-1.5 -10 -3.5 -24l-20 -146h61q17 0 29 -8q12 -8 12 -25zt0 0zM219 430l-21 -148h119l21 148z" />
<glyph unicode="&#36;" horiz-adv-x="481" d="M460 219q0 -40 -13 -77.5q-13 -37.5 -38.5 -67.5q-25.5 -30 -63 -50q-37.5 -20 -85.5 -26l0 -51q0 -9 -5.5 -15q-5.5 -6 -15.5 -6q-10 0 -15.5 6q-5.5 6 -5.5 15v47q-38 0 -73.5 8q-35.5 8 -63 20.5q-27.5 12.5 -44 28.5q-16.5 16 -16.5 32q0 16 9 29q9 13 26 13q14 0 28.5 -8.5q14.5 -8.5 33 -19q18.5 -10.5 43 -19q24.5 -8.5 57.5 -8.5l0 277q-34 12 -68 25q-34 13 -61 33.5q-27 20.5 -44 51.5q-17 31 -17 78q0 30 13 60.5q13 30.5 37 56.5q24 26 59.5 44q35.5 18 80.5 22l0 47q0 9 5.5 15q5.5 6 15.5 6q10 0 15.5 -6q5.5 -6 5.5 -15v-47q30 -2 57.5 -9.5q27.5 -7.5 49 -18.5q21.5 -11 34 -25q12.5 -14 12.5 -30q0 -16 -10.5 -27.5q-10.5 -11.5 -27.5 -11.5q-13 0 -23.5 6q-10.5 6 -22.5 13.5q-12 7.5 -28 15q-16 7.5 -41 11.5l0 -219q35 -12 70.5 -26.5q35.5 -14.5 64.5 -37q29 -22.5 47 -56q18 -33.5 18 -84.5zt0 0zM218 642q-42 -5 -69 -32q-27 -27 -27 -69q0 -21 7.5 -36.5q7.5 -15.5 20 -27.5q12.5 -12 30 -21q17.5 -9 38.5 -17zM366 215q0 25 -8.5 43q-8.5 18 -23 32q-14.5 14 -33.5 24q-19 10 -41 18l0 -257q51 11 78.5 48.5t27.5 91.5z" />
<glyph unicode="&#37;" horiz-adv-x="741" d="M346 549q0 -33 -9.5 -64q-9.5 -31 -29 -54q-19.5 -23 -48 -37q-28.5 -14 -65.5 -14q-38 0 -66 14q-28 14 -47.5 37q-19.5 23 -29 54q-9.5 31 -9.5 64q0 33 9.5 64q9.5 31 29 54q19.5 23 47.5 37q28 14 66 14q37 0 65.5 -14q28.5 -14 48 -37q19.5 -23 29 -54q9.5 -31 9.5 -64zt0 0zM545 699q0 -6 -2.5 -15q-2.5 -9 -11.5 -30l-266 -638q-7 -16 -15 -23q-8 -7 -22 -7q-17 0 -25 8.5q-8 8.5 -8 18.5q0 6 3 15.5q3 9.5 11 29.5l266 638q13 30 35 30q18 0 26.5 -9q8.5 -9 8.5 -18zt0 0zM699 163q0 -33 -9.5 -64q-9.5 -31 -29 -54q-19.5 -23 -48 -37q-28.5 -14 -65.5 -14q-38 0 -66 14q-28 14 -47.5 37q-19.5 23 -29 54q-9.5 31 -9.5 64q0 33 9.5 64q9.5 31 29 54q19.5 23 47.5 37q28 14 66 14q37 0 65.5 -14q28.5 -14 48 -37q19.5 -23 29 -54q9.5 -31 9.5 -64zt0 0zM280 549q0 20 -4.5 40.5q-4.5 20.5 -14.5 37q-10 16.5 -26.5 27q-16.5 10.5 -40.5 10.5q-24 0 -40.5 -10.5q-16.5 -10.5 -26.5 -27q-10 -16.5 -14.5 -37q-4.5 -20.5 -4.5 -40.5q0 -20 4.5 -40.5q4.5 -20.5 14.5 -37q10 -16.5 26.5 -27q16.5 -10.5 40.5 -10.5q24 0 40.5 10.5q16.5 10.5 26.5 27q10 16.5 14.5 37q4.5 20.5 4.5 40.5zt0 0zM633 163q0 20 -4.5 40.5q-4.5 20.5 -14.5 37q-10 16.5 -26.5 27q-16.5 10.5 -40.5 10.5q-24 0 -40.5 -10.5q-16.5 -10.5 -26.5 -27q-10 -16.5 -14.5 -37q-4.5 -20.5 -4.5 -40.5q0 -20 4.5 -40.5q4.5 -20.5 14.5 -37q10 -16.5 26.5 -27q16.5 -10.5 40.5 -10.5q24 0 40.5 10.5q16.5 10.5 26.5 27q10 16.5 14.5 37t4.5 40.5z" />
<glyph unicode="&#38;" horiz-adv-x="667" d="M631 30q0 -16 -10.5 -26q-10.5 -10 -25.5 -10q-21 0 -34 16l-86 99q-50 -63 -106.5 -89q-56.5 -26 -113.5 -26q-44 0 -83.5 14q-39.5 14 -69.5 40.5q-30 26.5 -48 65q-18 38.5 -18 87.5q0 45 11 79q11 34 31.5 60.5q20.5 26.5 50 48.5q29.5 22 66.5 45q-30 31 -54.5 67q-24.5 36 -24.5 72q0 39 13.5 67q13.5 28 37.5 45q24 17 55.5 25q31.5 8 67.5 8q31 0 59.5 -9.5q28.5 -9.5 50 -26q21.5 -16.5 34 -40q12.5 -23.5 12.5 -50.5q0 -34 -11 -60.5q-11 -26.5 -29 -47.5q-18 -21 -41 -37.5q-23 -16.5 -47 -29.5l159 -188l6 8q17 23 30.5 45.5q13.5 22.5 25 40q11.5 17.5 22 28q10.5 10.5 21.5 10.5q15 0 26 -7.5q11 -7.5 11 -22.5q0 -20 -19.5 -57.5q-19.5 -37.5 -73.5 -102.5l87 -103q9 -11 13.5 -19q4.5 -8 4.5 -19zt0 0zM364 577q0 36 -25.5 53.5q-25.5 17.5 -55.5 17.5q-32 0 -55.5 -18q-23.5 -18 -23.5 -55q0 -23 20 -48.5q20 -25.5 46 -54.5q15 9 31.5 20q16.5 11 30.5 24.5q14 13.5 23 28.5q9 15 9 32zt0 0zM244 377q-35 -20 -58 -39q-23 -19 -37 -39.5q-14 -20.5 -19.5 -42q-5.5 -21.5 -5.5 -45.5q0 -28 8.5 -52.5q8.5 -24.5 25.5 -43q17 -18.5 43.5 -29q26.5 -10.5 61.5 -10.5q46 0 83.5 20q37.5 20 79.5 71z" />
<glyph unicode="&#39;" horiz-adv-x="204" d="M143 539q0 -19 -10 -31q-10 -12 -31 -12q-21 0 -31 12q-10 12 -10 31v136q0 19 10 31q10 12 31 12q21 0 31 -12q10 -12 10 -31l0 -136z" />
<glyph unicode="&#40;" horiz-adv-x="241" d="M202 -71q0 -11 -8.5 -20q-8.5 -9 -26.5 -9q-17 0 -27 13.5q-10 13.5 -17 31.5q-28 74 -43 172q-15 98 -15 201q0 103 15 201q15 98 43 172q7 18 17 31.5q10 13.5 27 13.5q18 0 26.5 -9q8.5 -9 8.5 -20q0 -11 -4.5 -23.5q-4.5 -12.5 -9.5 -29.5q-20 -62 -30.5 -143q-10.5 -81 -10.5 -193q0 -112 10.5 -193q10.5 -81 30.5 -143q5 -17 9.5 -29.5t4.5 -23.5z" />
<glyph unicode="&#41;" horiz-adv-x="241" d="M176 318q0 -103 -15 -201q-15 -98 -43 -172q-7 -18 -17 -31.5q-10 -13.5 -27 -13.5q-18 0 -26.5 9q-8.5 9 -8.5 20q0 11 4.5 23.5q4.5 12.5 9.5 29.5q20 62 30.5 143q10.5 81 10.5 193q0 112 -10.5 193q-10.5 81 -30.5 143q-5 17 -9.5 29.5q-4.5 12.5 -4.5 23.5q0 11 8.5 20q8.5 9 26.5 9q17 0 27 -13.5q10 -13.5 17 -31.5q28 -74 43 -172t15 -201z" />
<glyph unicode="&#42;" horiz-adv-x="390" d="M352 472q0 -14 -10 -24q-10 -10 -25 -10q-9 0 -20 6q-11 6 -23 16q-12 10 -25.5 21q-13.5 11 -28.5 22q0 -27 5.5 -55.5q5.5 -28.5 5.5 -48.5q0 -14 -9.5 -24.5q-9.5 -10.5 -26.5 -10.5q-17 0 -26.5 10.5q-9.5 10.5 -9.5 24.5q0 20 5.5 48.5q5.5 28.5 5.5 55.5q-15 -11 -28.5 -22q-13.5 -11 -25.5 -21q-12 -10 -23 -16q-11 -6 -20 -6q-15 0 -25 10q-10 10 -10 24q0 10 3.5 17.5q3.5 7.5 19.5 14.5l89 37l-89 37q-16 7 -19.5 14.5q-3.5 7.5 -3.5 17.5q0 14 10 24q10 10 25 10q9 0 20 -6q11 -6 23 -16q12 -10 25.5 -21.5q13.5 -11.5 28.5 -21.5q0 27 -5.5 55.5q-5.5 28.5 -5.5 48.5q0 14 9.5 24.5q9.5 10.5 26.5 10.5q17 0 26.5 -10.5q9.5 -10.5 9.5 -24.5q0 -20 -5.5 -48.5q-5.5 -28.5 -5.5 -55.5q15 10 28.5 21.5q13.5 11.5 25.5 21.5q12 10 23 16q11 6 20 6q15 0 25 -10q10 -10 10 -24q0 -10 -3.5 -17.5q-3.5 -7.5 -19.5 -14.5l-89 -37l89 -37q16 -7 19.5 -14.5t3.5 -17.5z" />
<glyph unicode="&#43;" horiz-adv-x="600" d="M553 253q0 -21 -12 -31q-12 -10 -31 -10h-169v-169q0 -19 -10 -31q-10 -12 -31 -12q-21 0 -31 12q-10 12 -10 31v169h-169q-19 0 -31 10q-12 10 -12 31q0 21 12 31q12 10 31 10h169v169q0 19 10 31q10 12 31 12q21 0 31 -12q10 -12 10 -31v-169h169q19 0 31 -10t12 -31z" />
<glyph unicode="&#44;" horiz-adv-x="250" d="M176 58q0 -15 -11 -37l-56 -110q-8 -14 -17.5 -25.5q-9.5 -11.5 -29.5 -11.5q-16 0 -28 10.5q-12 10.5 -12 27.5q0 15 11 37l56 110q8 14 17.5 25.5q9.5 11.5 29.5 11.5q16 0 28 -10.5t12 -27.5z" />
<glyph unicode="&#45;" horiz-adv-x="352" d="M317 268q0 -16 -11 -27q-11 -11 -27 -11h-206q-16 0 -27 11q-11 11 -11 27q0 16 11 27q11 11 27 11h206q16 0 27 -11t11 -27z" />
<glyph unicode="&#46;" horiz-adv-x="250" d="M176 45q0 -21 -15 -36q-15 -15 -36 -15q-21 0 -36 15q-15 15 -15 36q0 21 15 36q15 15 36 15q21 0 36 -15t15 -36z" />
<glyph unicode="&#47;" horiz-adv-x="407" d="M387 681q0 -13 -14 -44l-273 -613q-5 -12 -14.5 -21q-9.5 -9 -26.5 -9q-17 0 -28 10q-11 10 -11 27q0 13 14 44l273 613q5 12 14.5 21q9.5 9 26.5 9q17 0 28 -10t11 -27z" />
<glyph unicode="&#48;" horiz-adv-x="536" d="M503 356q0 -97 -18.5 -166q-18.5 -69 -50.5 -112.5q-32 -43.5 -74.5 -63.5q-42.5 -20 -91.5 -20q-49 0 -91.5 20q-42.5 20 -74.5 63.5q-32 43.5 -50.5 112.5q-18.5 69 -18.5 166q0 97 18.5 166q18.5 69 50.5 112.5q32 43.5 74.5 63.5q42.5 20 91.5 20q49 0 91.5 -20q42.5 -20 74.5 -63.5q32 -43.5 50.5 -112.5q18.5 -69 18.5 -166zt0 0zM409 356q0 75 -11 129q-11 54 -30 89q-19 35 -45 51.5q-26 16.5 -55 16.5q-29 0 -55 -16.5q-26 -16.5 -45 -51.5q-19 -35 -30 -89q-11 -54 -11 -129q0 -75 11 -129q11 -54 30 -89q19 -35 45 -51.5q26 -16.5 55 -16.5q29 0 55 16.5q26 16.5 45 51.5q19 35 30 89t11 129z" />
<glyph unicode="&#49;" horiz-adv-x="352" d="M252 41q0 -22 -12 -34.5q-12 -12.5 -32 -12.5q-20 0 -32 12.5q-12 12.5 -12 34.5v595h-92q-16 0 -27 11q-11 11 -11 27q0 16 11 27q11 11 27 11h153q13 0 20 -3.5q7 -3.5 7 -20.5l0 -647z" />
<glyph unicode="&#50;" horiz-adv-x="536" d="M490 38q0 -16 -11 -27q-11 -11 -27 -11h-345q-28 0 -38 12.5q-10 12.5 -10 23.5q0 8 4 16q4 8 15 24l246 329q22 29 37 61.5q15 32.5 15 64.5q0 49 -32.5 80q-32.5 31 -80.5 31q-32 0 -56 -12.5q-24 -12.5 -40.5 -34.5q-16.5 -22 -25 -51.5q-8.5 -29.5 -8.5 -62.5q0 -23 -12.5 -31.5q-12.5 -8.5 -26.5 -8.5q-43 0 -43 54q0 44 15 84.5q15 40.5 43.5 71q28.5 30.5 71 49q42.5 18.5 97.5 18.5q44 0 79.5 -14.5q35.5 -14.5 60.5 -39.5q25 -25 38.5 -57q13.5 -32 13.5 -66q0 -31 -7.5 -66.5q-7.5 -35.5 -41.5 -80.5l-239 -318h270q16 0 27 -11t11 -27z" />
<glyph unicode="&#51;" horiz-adv-x="536" d="M476 210q0 -51 -17.5 -91q-17.5 -40 -48.5 -67.5q-31 -27.5 -72 -42.5q-41 -15 -89 -15q-56 0 -95 18q-39 18 -64.5 44q-25.5 26 -37 54q-11.5 28 -11.5 48q0 23 10.5 36q10.5 13 26.5 13q20 0 30.5 -11.5q10.5 -11.5 18.5 -34.5q13 -38 41 -64.5q28 -26.5 79 -26.5q30 0 54.5 10.5q24.5 10.5 42.5 28.5q18 18 28 42q10 24 10 51q0 40 -10 65.5q-10 25.5 -27 40.5q-17 15 -39.5 21q-22.5 6 -47.5 6q-26 0 -40 10.5q-14 10.5 -14 27.5q0 15 10.5 24q10.5 9 35.5 14q54 12 77 39q23 27 23 76q0 51 -27.5 83.5q-27.5 32.5 -73.5 32.5q-26 0 -44.5 -8.5q-18.5 -8.5 -30.5 -23q-12 -14.5 -18 -33.5q-6 -19 -8 -39q-1 -15 -5.5 -23.5q-4.5 -8.5 -11 -12q-6.5 -3.5 -13 -4.5q-6.5 -1 -12.5 -1q-19 0 -29.5 12q-10.5 12 -10.5 29q0 36 12.5 68.5q12.5 32.5 36.5 57q24 24.5 59 39.5q35 15 79 15q43 0 77 -14.5q34 -14.5 58 -40q24 -25.5 37 -59q13 -33.5 13 -70.5q0 -45 -21 -85q-21 -40 -63 -66q60 -18 91 -65t31 -108z" />
<glyph unicode="&#52;" horiz-adv-x="536" d="M505 221q0 -16 -11 -27q-11 -11 -27 -11h-45v-142q0 -22 -12 -34.5q-12 -12.5 -32 -12.5q-20 0 -32 12.5q-12 12.5 -12 34.5v142h-284q-23 0 -30.5 8.5q-7.5 8.5 -7.5 22.5q0 10 6 22.5q6 12.5 16 28.5l252 413q14 23 30 31.5q16 8.5 39 8.5q29 0 48 -17q19 -17 19 -56v-386h45q16 0 27 -11q11 -11 11 -27zt0 0zM334 614h-2l-210 -355l212 0z" />
<glyph unicode="&#53;" horiz-adv-x="536" d="M475 247q0 -57 -16 -104q-16 -47 -45.5 -80q-29.5 -33 -72.5 -51q-43 -18 -97 -18q-44 0 -82 12q-38 12 -66 30q-28 18 -43.5 38.5q-15.5 20.5 -15.5 36.5q0 15 11 27q11 12 28 12q16 0 29.5 -11.5q13.5 -11.5 31 -25.5q17.5 -14 42.5 -25.5q25 -11.5 66 -11.5q32 0 57 12.5q25 12.5 42.5 33.5q17.5 21 27 49q9.5 28 9.5 59q0 31 -7 59q-7 28 -22 48q-15 20 -38.5 32q-23.5 12 -55.5 12q-24 0 -42.5 -4q-18.5 -4 -33 -9.5q-14.5 -5.5 -25.5 -9.5q-11 -4 -20 -4q-16 0 -23 8q-7 8 -7 19q0 8 2.5 25q2.5 17 4.5 34l37 249q2 14 9.5 18.5q7.5 4.5 23.5 4.5h247q16 0 27 -11q11 -11 11 -27q0 -16 -11 -27q-11 -11 -27 -11h-203l-29 -193q22 11 45.5 15.5q23.5 4.5 48.5 4.5q42 0 75.5 -18q33.5 -18 57 -48q23.5 -30 36.5 -69t13 -81z" />
<glyph unicode="&#54;" horiz-adv-x="536" d="M484 226q0 -48 -16.5 -90.5q-16.5 -42.5 -45.5 -74q-29 -31.5 -69 -49.5q-40 -18 -87 -18q-47 0 -86 18.5q-39 18.5 -67.5 51q-28.5 32.5 -44.5 77.5q-16 45 -16 98q0 78 23.5 146.5q23.5 68.5 60 126.5q36.5 58 80 105q43.5 47 84.5 81q14 11 23 15.5q9 4.5 18 4.5q15 0 27.5 -10q12.5 -10 12.5 -30q0 -10 -2.5 -16q-2.5 -6 -7 -10.5q-4.5 -4.5 -12 -10q-7.5 -5.5 -16.5 -13.5q-21 -19 -40.5 -38q-19.5 -19 -38 -42q-18.5 -23 -37 -51q-18.5 -28 -38.5 -65l2 0q25 13 47 20.5q22 7.5 58 7.5q43 0 78 -16.5q35 -16.5 59.5 -47q24.5 -30.5 37.5 -74q13 -43.5 13 -96.5zt0 0zM390 230q0 71 -29.5 112.5q-29.5 41.5 -95.5 41.5q-33 0 -56.5 -12.5q-23.5 -12.5 -38.5 -33.5q-15 -21 -22.5 -49q-7.5 -28 -7.5 -59q0 -31 7.5 -59q7.5 -28 22.5 -49q15 -21 38.5 -33.5q23.5 -12.5 56.5 -12.5q33 0 56.5 12.5q23.5 12.5 38.5 33.5q15 21 22.5 49t7.5 59z" />
<glyph unicode="&#55;" horiz-adv-x="500" d="M472 684q0 -11 -4.5 -22.5q-4.5 -11.5 -12.5 -30.5l-266 -605q-9 -21 -24 -26.5q-15 -5.5 -29 -5.5q-9 0 -21 8.5q-12 8.5 -12 25.5q0 5 3 16q3 11 11 31l249 559v2h-300q-16 0 -27 11q-11 11 -11 27q0 16 11 27q11 11 27 11h361q20 0 32.5 -6t12.5 -22z" />
<glyph unicode="&#56;" horiz-adv-x="536" d="M486 213q0 -46 -14.5 -86q-14.5 -40 -42.5 -69.5q-28 -29.5 -68.5 -46.5q-40.5 -17 -92.5 -17q-52 0 -92.5 17q-40.5 17 -68.5 46.5q-28 29.5 -42.5 69.5q-14.5 40 -14.5 86q0 31 8.5 61q8.5 30 25 55q16.5 25 40.5 43q24 18 55 25q-48 30 -70.5 65.5q-22.5 35.5 -22.5 92.5q0 41 16 71.5q16 30.5 41.5 51q25.5 20.5 58 30.5q32.5 10 66.5 10q34 0 66.5 -10q32.5 -10 58 -30.5q25.5 -20.5 41.5 -51q16 -30.5 16 -71.5q0 -57 -22.5 -92.5q-22.5 -35.5 -70.5 -65.5q31 -7 55 -25q24 -18 40.5 -43q16.5 -25 25 -55q8.5 -30 8.5 -61zt0 0zM368 538q0 45 -26 74.5q-26 29.5 -74 29.5q-48 0 -74 -29.5q-26 -29.5 -26 -74.5q0 -46 26 -75.5q26 -29.5 74 -29.5q48 0 74 29.5q26 29.5 26 75.5zt0 0zM392 215q0 27 -8 53q-8 26 -23.5 45.5q-15.5 19.5 -38.5 31.5q-23 12 -54 12q-31 0 -54 -12q-23 -12 -38.5 -31.5q-15.5 -19.5 -23.5 -45.5q-8 -26 -8 -53q0 -35 10 -61.5q10 -26.5 27 -45.5q17 -19 39.5 -28.5q22.5 -9.5 47.5 -9.5q25 0 47.5 9.5q22.5 9.5 39.5 28.5q17 19 27 45.5t10 61.5z" />
<glyph unicode="&#57;" horiz-adv-x="536" d="M52 486q0 48 16.5 90.5q16.5 42.5 45.5 74q29 31.5 69 49.5q40 18 87 18q46 0 85.5 -18.5q39.5 -18.5 68 -51q28.5 -32.5 44.5 -77.5q16 -45 16 -98q0 -78 -23.5 -146.5q-23.5 -68.5 -60 -126.5q-36.5 -58 -80.5 -105q-44 -47 -84 -81q-14 -11 -23 -15.5q-9 -4.5 -18 -4.5q-15 0 -27.5 10q-12.5 10 -12.5 30q0 10 2.5 16q2.5 6 7 10.5q4.5 4.5 12 10q7.5 5.5 16.5 13.5q21 19 40.5 38q19.5 19 38 42q18.5 23 37 51q18.5 28 38.5 65l-2 0q-25 -13 -47 -20.5q-22 -7.5 -58 -7.5q-44 0 -78.5 16.5q-34.5 16.5 -59 47q-24.5 30.5 -37.5 74q-13 43.5 -13 96.5zt0 0zM146 482q0 -71 29.5 -112.5q29.5 -41.5 95.5 -41.5q33 0 56.5 12.5q23.5 12.5 38.5 33.5q15 21 22.5 49q7.5 28 7.5 59q0 31 -7.5 59q-7.5 28 -22.5 49q-15 21 -38.5 33.5q-23.5 12.5 -56.5 12.5q-33 0 -56.5 -12.5q-23.5 -12.5 -38.5 -33.5q-15 -21 -22.5 -49t-7.5 -59z" />
<glyph unicode="&#58;" horiz-adv-x="250" d="M176 381q0 -21 -15 -36q-15 -15 -36 -15q-21 0 -36 15q-15 15 -15 36q0 21 15 36q15 15 36 15q21 0 36 -15q15 -15 15 -36zt0 0zM176 45q0 -21 -15 -36q-15 -15 -36 -15q-21 0 -36 15q-15 15 -15 36q0 21 15 36q15 15 36 15q21 0 36 -15t15 -36z" />
<glyph unicode="&#59;" horiz-adv-x="250" d="M176 381q0 -21 -15 -36q-15 -15 -36 -15q-21 0 -36 15q-15 15 -15 36q0 21 15 36q15 15 36 15q21 0 36 -15q15 -15 15 -36zt0 0zM176 58q0 -15 -11 -37l-56 -110q-8 -14 -17.5 -25.5q-9.5 -11.5 -29.5 -11.5q-16 0 -28 10.5q-12 10.5 -12 27.5q0 15 11 37l56 110q8 14 17.5 25.5q9.5 11.5 29.5 11.5q16 0 28 -10.5t12 -27.5z" />
<glyph unicode="&#60;" horiz-adv-x="600" d="M554 31q0 -16 -10 -26.5q-10 -10.5 -23 -10.5q-9 0 -21 5q-12 5 -28 13l-390 195q-20 10 -28 20.5q-8 10.5 -8 25.5q0 15 8 25.5q8 10.5 28 20.5l390 195q16 8 28 13q12 5 21 5q13 0 23 -10.5q10 -10.5 10 -26.5q0 -16 -10.5 -24q-10.5 -8 -21.5 -14l-372 -184l372 -184q11 -6 21.5 -14t10.5 -24z" />
<glyph unicode="&#61;" horiz-adv-x="600" d="M553 357q0 -21 -12 -31q-12 -10 -31 -10h-420q-19 0 -31 10q-12 10 -12 31q0 21 12 31q12 10 31 10h420q19 0 31 -10q12 -10 12 -31zt0 0zM553 149q0 -21 -12 -31q-12 -10 -31 -10h-420q-19 0 -31 10q-12 10 -12 31q0 21 12 31q12 10 31 10h420q19 0 31 -10t12 -31z" />
<glyph unicode="&#62;" horiz-adv-x="600" d="M554 253q0 -15 -8 -25.5q-8 -10.5 -28 -20.5l-390 -195q-16 -8 -28 -13q-12 -5 -21 -5q-13 0 -23 10.5q-10 10.5 -10 26.5q0 16 10.5 24q10.5 8 21.5 14l372 184l-372 184q-11 6 -21.5 14q-10.5 8 -10.5 24q0 16 10 26.5q10 10.5 23 10.5q9 0 21 -5q12 -5 28 -13l390 -195q20 -10 28 -20.5t8 -25.5z" />
<glyph unicode="&#63;" horiz-adv-x="444" d="M426 534q0 -81 -46.5 -130.5q-46.5 -49.5 -121.5 -65.5l0 -100q0 -22 -12 -34.5q-12 -12.5 -32 -12.5q-20 0 -32 12.5q-12 12.5 -12 34.5v113q0 17 1 27.5q1 10.5 8 17.5q7 7 21 12q14 5 40 10q30 6 48 18.5q18 12.5 27.5 27.5q9.5 15 13 31.5q3.5 16.5 3.5 30.5q0 51 -32.5 80.5q-32.5 29.5 -83.5 29.5q-40 0 -69.5 -17q-29.5 -17 -46.5 -65q-7 -20 -16 -26.5q-9 -6.5 -23 -6.5q-17 0 -30.5 12.5q-13.5 12.5 -12.5 33.5q1 33 19 60.5q18 27.5 45.5 48q27.5 20.5 61.5 31.5q34 11 69 11q45 0 84 -14q39 -14 67.5 -38.5q28.5 -24.5 45 -58q16.5 -33.5 16.5 -73.5zt0 0zM265 45q0 -21 -15 -36q-15 -15 -36 -15q-21 0 -36 15q-15 15 -15 36q0 21 15 36q15 15 36 15q21 0 36 -15t15 -36z" />
<glyph unicode="&#64;" horiz-adv-x="800" d="M764 420q0 -73 -26 -125.5q-26 -52.5 -64.5 -86.5q-38.5 -34 -81.5 -50q-43 -16 -76 -16q-60 0 -70 57l-2 0q-20 -23 -51 -40q-31 -17 -64 -17q-32 0 -60 12.5q-28 12.5 -48 34q-20 21.5 -31.5 50q-11.5 28.5 -11.5 60.5q0 48 16.5 94q16.5 46 46 83q29.5 37 71 59.5q41.5 22.5 92.5 22.5q37 0 67 -17q30 -17 50 -58l13 40q5 17 14.5 23q9.5 6 25.5 6q12 0 22 -5q10 -5 10 -17q0 -5 -1.5 -12.5q-1.5 -7.5 -6.5 -23.5l-62 -214q-3 -11 -5.5 -21q-2.5 -10 -2.5 -20q0 -13 6.5 -21q6.5 -8 21.5 -8q24 0 47.5 16.5q23.5 16.5 42.5 44q19 27.5 30.5 63q11.5 35.5 11.5 74.5q0 58 -22.5 103.5q-22.5 45.5 -60.5 76.5q-38 31 -87.5 47.5q-49.5 16.5 -103.5 16.5q-65 0 -120 -23q-55 -23 -95.5 -63q-40.5 -40 -63.5 -94q-23 -54 -23 -116q0 -65 23.5 -119.5q23.5 -54.5 65.5 -93.5q42 -39 99 -61q57 -22 123 -22q63 0 104.5 17q41.5 17 70 38q28.5 21 49 38q20.5 17 41.5 17q11 0 18 -6q7 -6 7 -17q0 -21 -28 -47.5q-28 -26.5 -71 -50q-43 -23.5 -96 -39.5q-53 -16 -102 -16q-79 0 -148.5 28q-69.5 28 -121 76.5q-51.5 48.5 -81 114.5q-29.5 66 -29.5 143q0 76 30 142q30 66 81.5 115q51.5 49 120 77q68.5 28 146.5 28q71 0 134.5 -21.5q63.5 -21.5 111.5 -61q48 -39.5 76 -94.5q28 -55 28 -121zt0 0zM484 410q0 72 -75 72q-36 0 -63 -16.5q-27 -16.5 -44.5 -42q-17.5 -25.5 -26.5 -56.5q-9 -31 -9 -59q0 -40 24 -65q24 -25 58 -25q37 0 63 22q26 22 42 53q16 31 23.5 63.5t7.5 53.5z" />
<glyph unicode="&#65;" horiz-adv-x="612" d="M602 31q0 -17 -12.5 -27q-12.5 -10 -29.5 -10q-18 0 -28 9.5q-10 9.5 -15 23.5l-46 128h-330l-46 -128q-5 -14 -15 -23.5q-10 -9.5 -28 -9.5q-17 0 -29.5 10q-12.5 10 -12.5 27q0 9 5 23q5 14 7 21l221 589q9 23 23 38.5q14 15.5 40 15.5q26 0 40 -15.5q14 -15.5 23 -38.5l221 -589q2 -7 7 -21q5 -14 5 -23zt0 0zM307 616h-2l-137 -385l276 0z" />
<glyph unicode="&#66;" horiz-adv-x="537" d="M507 208q0 -42 -15.5 -80q-15.5 -38 -45 -66.5q-29.5 -28.5 -73 -45q-43.5 -16.5 -99.5 -16.5h-169q-25 0 -36 14q-11 14 -11 34v616q0 20 11 34q11 14 36 14h155q47 0 83 -15q36 -15 60 -39.5q24 -24.5 36.5 -55q12.5 -30.5 12.5 -60.5q0 -59 -27.5 -100.5q-27.5 -41.5 -71.5 -55.5l0 -2q32 -3 60 -18q28 -15 49 -38q21 -23 33 -54q12 -31 12 -66zt0 0zM364 526q0 48 -28 79q-28 31 -87 31h-103v-225h100q57 0 87.5 33q30.5 33 30.5 82zt0 0zM419 208q0 27 -9.5 51q-9.5 24 -28.5 42q-19 18 -46 28q-27 10 -61 10h-128v-263h124q65 0 107 36t42 96z" />
<glyph unicode="&#67;" horiz-adv-x="593" d="M569 93q0 -17 -17.5 -34.5q-17.5 -17.5 -48.5 -32q-31 -14.5 -72 -23.5q-41 -9 -88 -9q-77 0 -135.5 30.5q-58.5 30.5 -97.5 81q-39 50.5 -59 116q-20 65.5 -20 134.5q0 69 20 134.5q20 65.5 59.5 116q39.5 50.5 99 81q59.5 30.5 138.5 30.5q47 0 85 -11q38 -11 65 -27.5q27 -16.5 41.5 -34.5q14.5 -18 14.5 -31q0 -17 -9.5 -29.5q-9.5 -12.5 -26.5 -12.5q-15 0 -28 11q-13 11 -31 24q-18 13 -44 24q-26 11 -67 11q-59 0 -101.5 -25.5q-42.5 -25.5 -69.5 -66.5q-27 -41 -39.5 -92q-12.5 -51 -12.5 -102q0 -51 13 -102q13 -51 39.5 -92q26.5 -41 67.5 -66.5q41 -25.5 98 -25.5q40 0 69.5 10q29.5 10 52 22q22.5 12 39 22q16.5 10 30.5 10q16 0 25.5 -11t9.5 -30z" />
<glyph unicode="&#68;" horiz-adv-x="630" d="M599 360q0 -80 -20.5 -146q-20.5 -66 -59.5 -113.5q-39 -47.5 -95.5 -74q-56.5 -26.5 -128.5 -26.5h-185q-25 0 -36 14q-11 14 -11 34v616q0 20 11 34q11 14 36 14h173q79 0 138.5 -28.5q59.5 -28.5 99 -77q39.5 -48.5 59 -112.5q19.5 -64 19.5 -134zt0 0zM505 360q0 55 -13 105q-13 50 -41 88q-28 38 -72.5 60.5q-44.5 22.5 -107.5 22.5h-120v-560h126q62 0 105.5 24q43.5 24 70.5 63.5q27 39.5 39.5 91t12.5 105.5z" />
<glyph unicode="&#69;" horiz-adv-x="444" d="M401 41q0 -21 -12 -31q-12 -10 -31 -10h-253q-25 0 -36 14q-11 14 -11 34v616q0 20 11 34q11 14 36 14h253q19 0 31 -10q12 -10 12 -31q0 -21 -12 -31q-12 -10 -31 -10h-212v-233h193q19 0 31 -10q12 -10 12 -31q0 -21 -12 -31q-12 -10 -31 -10h-193v-233h212q19 0 31 -10t12 -31z" />
<glyph unicode="&#70;" horiz-adv-x="407" d="M398 671q0 -21 -12 -31q-12 -10 -31 -10h-209v-233h185q19 0 31 -10q12 -10 12 -31q0 -21 -12 -31q-12 -10 -31 -10h-185v-274q0 -22 -12 -34.5q-12 -12.5 -32 -12.5q-20 0 -32 12.5q-12 12.5 -12 34.5v623q0 20 11 34q11 14 36 14h250q19 0 31 -10t12 -31z" />
<glyph unicode="&#71;" horiz-adv-x="667" d="M647 336q0 -65 -13.5 -126.5q-13.5 -61.5 -48 -109.5q-34.5 -48 -93 -77q-58.5 -29 -149.5 -29q-77 0 -135.5 30.5q-58.5 30.5 -97.5 81q-39 50.5 -59 116q-20 65.5 -20 134.5q0 69 19.5 134.5q19.5 65.5 59.5 116q40 50.5 101 81q61 30.5 145 30.5q55 0 100 -12.5q45 -12.5 77 -30.5q32 -18 49.5 -37.5q17.5 -19.5 17.5 -33.5q0 -17 -11.5 -29.5q-11.5 -12.5 -30.5 -12.5q-17 0 -33.5 12.5q-16.5 12.5 -39 27.5q-22.5 15 -55 27.5q-32.5 12.5 -80.5 12.5q-60 0 -102.5 -25.5q-42.5 -25.5 -70 -66.5q-27.5 -41 -40 -92q-12.5 -51 -12.5 -102q0 -51 12.5 -102q12.5 -51 40 -92q27.5 -41 71 -66.5q43.5 -25.5 105.5 -25.5q52 0 90.5 20q38.5 20 64 51q25.5 31 38 69q12.5 38 12.5 74v42h-124q-19 0 -31 10q-12 10 -12 31q0 21 12 31q12 10 31 10h148q34 0 49 -15t15 -57z" />
<glyph unicode="&#72;" horiz-adv-x="667" d="M609 47q0 -26 -12 -39.5q-12 -13.5 -32 -13.5q-20 0 -32 13.5q-12 13.5 -12 39.5v272h-375v-272q0 -26 -12 -39.5q-12 -13.5 -32 -13.5q-20 0 -32 13.5q-12 13.5 -12 39.5v618q0 26 12 39.5q12 13.5 32 13.5q20 0 32 -13.5q12 -13.5 12 -39.5v-270h375v270q0 26 12 39.5q12 13.5 32 13.5q20 0 32 -13.5q12 -13.5 12 -39.5l0 -618z" />
<glyph unicode="&#73;" horiz-adv-x="204" d="M146 41q0 -22 -12 -34.5q-12 -12.5 -32 -12.5q-20 0 -32 12.5q-12 12.5 -12 34.5v630q0 22 12 34.5q12 12.5 32 12.5q20 0 32 -12.5q12 -12.5 12 -34.5l0 -630z" />
<glyph unicode="&#74;" horiz-adv-x="370" d="M312 181q0 -42 -9.5 -76.5q-9.5 -34.5 -30 -59q-20.5 -24.5 -53.5 -38q-33 -13.5 -80 -13.5q-18 0 -43 5q-25 5 -48 15.5q-23 10.5 -39 25q-16 14.5 -16 34.5q0 17 9.5 27q9.5 10 25.5 10q15 0 24.5 -6.5q9.5 -6.5 21 -14q11.5 -7.5 27.5 -14q16 -6.5 45 -6.5q23 0 38 8q15 8 24 22q9 14 12.5 32.5q3.5 18.5 3.5 39.5v499q0 22 12 34.5q12 12.5 32 12.5q20 0 32 -12.5q12 -12.5 12 -34.5l0 -490z" />
<glyph unicode="&#75;" horiz-adv-x="574" d="M564 33q0 -16 -12.5 -27.5q-12.5 -11.5 -30.5 -11.5q-10 0 -19.5 3q-9.5 3 -23.5 16l-332 326v-298q0 -22 -12 -34.5q-12 -12.5 -32 -12.5q-20 0 -32 12.5q-12 12.5 -12 34.5v630q0 22 12 34.5q12 12.5 32 12.5q20 0 32 -12.5q12 -12.5 12 -34.5v-260l305 279q12 11 23 19.5q11 8.5 25 8.5q17 0 27.5 -10.5q10.5 -10.5 10.5 -27.5q0 -17 -5 -25q-5 -8 -13 -15l-292 -263l319 -308q11 -10 14.5 -18t3.5 -18z" />
<glyph unicode="&#76;" horiz-adv-x="389" d="M377 41q0 -21 -12 -31q-12 -10 -31 -10h-229q-25 0 -36 14q-11 14 -11 34v623q0 22 12 34.5q12 12.5 32 12.5q20 0 32 -12.5q12 -12.5 12 -34.5v-589h188q19 0 31 -10t12 -31z" />
<glyph unicode="&#77;" horiz-adv-x="834" d="M805 39q0 -20 -10.5 -32.5q-10.5 -12.5 -30.5 -12.5q-17 0 -30.5 7.5q-13.5 7.5 -16.5 30.5l-83 572h-2l-170 -574q-7 -22 -18.5 -29q-11.5 -7 -26.5 -7q-15 0 -26.5 7q-11.5 7 -18.5 29l-170 574h-2l-83 -572q-3 -23 -16.5 -30.5q-13.5 -7.5 -30.5 -7.5q-20 0 -30.5 12.5q-10.5 12.5 -10.5 32.5q0 8 1.5 17.5q1.5 9.5 3.5 22.5l97 572q6 38 25.5 52.5q19.5 14.5 43.5 14.5q26 0 41 -10.5q15 -10.5 23 -35.5l152 -521h2l152 521q8 25 23 35.5q15 10.5 41 10.5q24 0 43.5 -14.5q19.5 -14.5 25.5 -52.5l97 -572q2 -13 3.5 -22.5t1.5 -17.5z" />
<glyph unicode="&#78;" horiz-adv-x="667" d="M610 46q0 -52 -40 -52q-20 0 -32 10q-12 10 -30 36l-360 517h-2v-516q0 -22 -12 -34.5q-12 -12.5 -32 -12.5q-20 0 -32 12.5q-12 12.5 -12 34.5v625q0 52 40 52q20 0 32 -10q12 -10 30 -36l360 -517h2v516q0 22 12 34.5q12 12.5 32 12.5q20 0 32 -12.5q12 -12.5 12 -34.5l0 -625z" />
<glyph unicode="&#79;" horiz-adv-x="686" d="M655 356q0 -69 -20 -134.5q-20 -65.5 -59.5 -116q-39.5 -50.5 -98 -81q-58.5 -30.5 -134.5 -30.5q-76 0 -134.5 30.5q-58.5 30.5 -98 81q-39.5 50.5 -59.5 116q-20 65.5 -20 134.5q0 69 20 134.5q20 65.5 59.5 116q39.5 50.5 98 81q58.5 30.5 134.5 30.5q76 0 134.5 -30.5q58.5 -30.5 98 -81q39.5 -50.5 59.5 -116q20 -65.5 20 -134.5zt0 0zM561 356q0 51 -11.5 102q-11.5 51 -37.5 92q-26 41 -67.5 66.5q-41.5 25.5 -101.5 25.5q-60 0 -101.5 -25.5q-41.5 -25.5 -67.5 -66.5q-26 -41 -37.5 -92q-11.5 -51 -11.5 -102q0 -51 11.5 -102q11.5 -51 37.5 -92q26 -41 67.5 -66.5q41.5 -25.5 101.5 -25.5q60 0 101.5 25.5q41.5 25.5 67.5 66.5q26 41 37.5 92t11.5 102z" />
<glyph unicode="&#80;" horiz-adv-x="519" d="M510 488q0 -47 -17.5 -87.5q-17.5 -40.5 -48 -70.5q-30.5 -30 -72 -47q-41.5 -17 -90.5 -17h-136v-225q0 -22 -12 -34.5q-12 -12.5 -32 -12.5q-20 0 -32 12.5q-12 12.5 -12 34.5v623q0 20 11 34q11 14 36 14h174q54 0 96.5 -17.5q42.5 -17.5 72.5 -48q30 -30.5 46 -71.5q16 -41 16 -87zt0 0zM422 488q0 26 -8 52.5q-8 26.5 -26 47.5q-18 21 -46.5 34.5q-28.5 13.5 -69.5 13.5h-126v-294h130q33 0 59.5 11.5q26.5 11.5 46 31q19.5 19.5 30 46.5t10.5 57z" />
<glyph unicode="&#81;" horiz-adv-x="685" d="M684 23q0 -14 -10.5 -25.5q-10.5 -11.5 -27.5 -11.5q-13 0 -21 5.5q-8 5.5 -13 10.5l-70 69q-38 -36 -87.5 -56.5q-49.5 -20.5 -111.5 -20.5q-76 0 -134.5 30.5q-58.5 30.5 -98 81q-39.5 50.5 -59.5 116q-20 65.5 -20 134.5q0 69 20 134.5q20 65.5 59.5 116q39.5 50.5 98 81q58.5 30.5 134.5 30.5q76 0 134.5 -30.5q58.5 -30.5 98 -81q39.5 -50.5 59.5 -116q20 -65.5 20 -134.5q0 -62 -15.5 -119.5q-15.5 -57.5 -46.5 -105.5l74 -73q8 -8 12.5 -16q4.5 -8 4.5 -19zt0 0zM561 356q0 51 -11.5 102q-11.5 51 -37.5 92q-26 41 -67.5 66.5q-41.5 25.5 -101.5 25.5q-60 0 -101.5 -25.5q-41.5 -25.5 -67.5 -66.5q-26 -41 -37.5 -92q-11.5 -51 -11.5 -102q0 -51 11.5 -102q11.5 -51 37.5 -92q26 -41 67.5 -66.5q41.5 -25.5 101.5 -25.5q46 0 81 15q35 15 61 42l-59 58q-8 8 -13 15.5q-5 7.5 -5 17.5q0 17 11 28.5q11 11.5 28 11.5q17 0 33 -16l49 -48q17 36 24.5 78t7.5 84z" />
<glyph unicode="&#82;" horiz-adv-x="519" d="M498 28q0 -14 -11.5 -24q-11.5 -10 -28.5 -10q-14 0 -23 6q-9 6 -17 14l-272 298v-271q0 -22 -12 -34.5q-12 -12.5 -32 -12.5q-20 0 -32 12.5q-12 12.5 -12 34.5v623q0 20 11 34q11 14 36 14h163q42 0 81.5 -13.5q39.5 -13.5 69.5 -39q30 -25.5 48.5 -61q18.5 -35.5 18.5 -78.5q0 -54 -15.5 -92q-15.5 -38 -42 -62q-26.5 -24 -61.5 -35.5q-35 -11.5 -75 -12.5l-38 -1l227 -249q17 -18 17 -40zt0 0zM398 514q0 25 -9.5 47q-9.5 22 -27 38.5q-17.5 16.5 -42 26.5q-24.5 10 -55.5 10h-118v-253h120q69 0 100.5 31t31.5 100z" />
<glyph unicode="&#83;" horiz-adv-x="481" d="M460 219q0 -44 -16 -85q-16 -41 -46.5 -72q-30.5 -31 -75.5 -49.5q-45 -18.5 -103 -18.5q-35 0 -71 7q-36 7 -65 19.5q-29 12.5 -47 29q-18 16.5 -18 35.5q0 14 10.5 27q10.5 13 29.5 13q11 0 25 -8.5q14 -8.5 33.5 -19q19.5 -10.5 44.5 -19q25 -8.5 59 -8.5q34 0 61 11.5q27 11.5 46 31.5q19 20 29 46q10 26 10 56q0 42 -25 66q-25 24 -62.5 40q-37.5 16 -81.5 30q-44 14 -81.5 35.5q-37.5 21.5 -62.5 56q-25 34.5 -25 92.5q0 31 14 63.5q14 32.5 41 59q27 26.5 66 43.5q39 17 89 17q33 0 64.5 -6.5q31.5 -6.5 56 -18q24.5 -11.5 39.5 -26.5q15 -15 15 -32q0 -16 -10.5 -27.5q-10.5 -11.5 -27.5 -11.5q-15 0 -26 7q-11 7 -25.5 16q-14.5 9 -35 16q-20.5 7 -53.5 7q-49 0 -81 -28q-32 -28 -32 -73q0 -39 25 -61.5q25 -22.5 62.5 -38.5q37.5 -16 81.5 -30q44 -14 81.5 -36.5q37.5 -22.5 62.5 -59t25 -96.5z" />
<glyph unicode="&#84;" horiz-adv-x="444" d="M442 671q0 -21 -12 -31q-12 -10 -31 -10h-133v-589q0 -22 -12 -34.5q-12 -12.5 -32 -12.5q-20 0 -32 12.5q-12 12.5 -12 34.5v589h-133q-19 0 -31 10q-12 10 -12 31q0 21 12 31q12 10 31 10h354q19 0 31 -10t12 -31z" />
<glyph unicode="&#85;" horiz-adv-x="668" d="M610 282q0 -90 -26 -146.5q-26 -56.5 -66.5 -88q-40.5 -31.5 -89 -42.5q-48.5 -11 -94.5 -11q-46 0 -94.5 11q-48.5 11 -89 42.5q-40.5 31.5 -66.5 88q-26 56.5 -26 146.5v389q0 22 12 34.5q12 12.5 32 12.5q20 0 32 -12.5q12 -12.5 12 -34.5v-423q0 -84 52 -131q52 -47 136 -47q84 0 136 47q52 47 52 131v423q0 22 12 34.5q12 12.5 32 12.5q20 0 32 -12.5q12 -12.5 12 -34.5l0 -389z" />
<glyph unicode="&#86;" horiz-adv-x="556" d="M552 682q0 -16 -6 -34l-217 -606q-8 -22 -18 -35q-10 -13 -33 -13q-23 0 -33 13q-10 13 -18 35l-217 606q-6 18 -6 34q0 14 10.5 25q10.5 11 28.5 11q26 0 36 -17q10 -17 18 -40l180 -519h2l180 519q8 23 18 40q10 17 36 17q18 0 28.5 -11t10.5 -25z" />
<glyph unicode="&#87;" horiz-adv-x="834" d="M809 678q0 -8 -1 -18.5q-1 -10.5 -4 -26.5l-108 -581q-2 -12 -6 -22.5q-4 -10.5 -11 -18.5q-7 -8 -18.5 -12.5q-11.5 -4.5 -27.5 -4.5q-26 0 -42 10.5q-16 10.5 -27 47.5l-146 522h-2l-146 -522q-11 -37 -27 -47.5q-16 -10.5 -42 -10.5q-33 0 -46 17.5q-13 17.5 -17 40.5l-108 581q-3 16 -4 26.5q-1 10.5 -1 18.5q0 17 10.5 28.5q10.5 11.5 29.5 11.5q41 0 48 -41l93 -569h2l164 575q6 20 17 27.5q11 7.5 28 7.5q17 0 28 -7.5q11 -7.5 17 -27.5l164 -575h2l93 569q7 41 48 41q19 0 29.5 -11.5t10.5 -28.5z" />
<glyph unicode="&#88;" horiz-adv-x="594" d="M585 31q0 -16 -12.5 -26.5q-12.5 -10.5 -27.5 -10.5q-11 0 -20.5 4.5q-9.5 4.5 -23.5 23.5l-204 291l-204 -291q-14 -19 -23.5 -23.5q-9.5 -4.5 -20.5 -4.5q-15 0 -27.5 10.5q-12.5 10.5 -12.5 26.5q0 11 4.5 20q4.5 9 9.5 16l223 315l-186 263q-14 20 -14 36q0 17 11.5 27q11.5 10 27.5 10q11 0 21.5 -5q10.5 -5 23.5 -23l167 -244l167 244q13 18 23.5 23q10.5 5 21.5 5q16 0 27.5 -10q11.5 -10 11.5 -27q0 -16 -14 -36l-186 -263l223 -315q5 -7 9.5 -16t4.5 -20z" />
<glyph unicode="&#89;" horiz-adv-x="500" d="M499 682q0 -15 -14 -37l-191 -311v-293q0 -22 -12 -34.5q-12 -12.5 -32 -12.5q-20 0 -32 12.5q-12 12.5 -12 34.5v293l-191 311q-14 22 -14 37q0 17 11.5 26.5q11.5 9.5 28.5 9.5q12 0 23 -5.5q11 -5.5 21 -22.5l165 -269l165 269q10 17 21 22.5q11 5.5 23 5.5q17 0 28.5 -9.5t11.5 -26.5z" />
<glyph unicode="&#90;" horiz-adv-x="556" d="M532 38q0 -19 -12 -28.5q-12 -9.5 -31 -9.5h-413q-28 0 -40 10.5q-12 10.5 -12 29.5q0 11 3 21q3 10 14 26l366 549h-323q-19 0 -31 9.5q-12 9.5 -12 28.5q0 19 12 28.5q12 9.5 31 9.5h389q22 0 34 -9.5q12 -9.5 12 -21.5q0 -14 -4 -25q-4 -11 -18 -31l-367 -549h359q19 0 31 -9.5t12 -28.5z" />
<glyph unicode="&#91;" horiz-adv-x="241" d="M230 -44q0 -16 -11 -27q-11 -11 -27 -11h-69q-25 0 -36 14q-11 14 -11 34v704q0 20 11 34q11 14 36 14h69q16 0 27 -11q11 -11 11 -27q0 -16 -11 -27q-11 -11 -27 -11h-34v-648h34q16 0 27 -11t11 -27z" />
<glyph unicode="&#92;" horiz-adv-x="407" d="M387 31q0 -17 -11 -27q-11 -10 -28 -10q-17 0 -26.5 9q-9.5 9 -14.5 21l-273 613q-14 31 -14 44q0 17 11 27q11 10 28 10q17 0 26.5 -9q9.5 -9 14.5 -21l273 -613q14 -31 14 -44z" />
<glyph unicode="&#93;" horiz-adv-x="241" d="M165 -34q0 -20 -11 -34q-11 -14 -36 -14h-69q-16 0 -27 11q-11 11 -11 27q0 16 11 27q11 11 27 11h34v648h-34q-16 0 -27 11q-11 11 -11 27q0 16 11 27q11 11 27 11h69q25 0 36 -14q11 -14 11 -34l0 -704z" />
<glyph unicode="&#94;" horiz-adv-x="600" d="M544 322q0 -14 -10.5 -23.5q-10.5 -9.5 -26.5 -9.5q-17 0 -26.5 12q-9.5 12 -23.5 38l-157 291l-157 -291q-14 -26 -23.5 -38q-9.5 -12 -26.5 -12q-16 0 -26.5 9.5q-10.5 9.5 -10.5 23.5q0 11 6 22q6 11 11 21l175 312q10 17 21 29q11 12 31 12q20 0 31 -12q11 -12 21 -29l175 -312q5 -10 11 -21t6 -22z" />
<glyph unicode="&#95;" horiz-adv-x="500" d="M529 -100q0 -12 -8.5 -18.5q-8.5 -6.5 -20.5 -6.5h-500q-12 0 -20.5 6.5q-8.5 6.5 -8.5 18.5q0 12 8.5 18.5q8.5 6.5 20.5 6.5h500q12 0 20.5 -6.5t8.5 -18.5z" />
<glyph unicode="&#96;" horiz-adv-x="444" d="M333 649q0 -11 -9 -26.5q-9 -15.5 -29 -15.5q-7 0 -14 2q-7 2 -20 7l-115 47q-21 8 -28 18q-7 10 -7 19q0 11 9 26.5q9 15.5 29 15.5q7 0 14 -2q7 -2 20 -7l115 -47q21 -8 28 -18t7 -19z" />
<glyph unicode="&#97;" horiz-adv-x="516" d="M458 41q0 -22 -12 -34.5q-12 -12.5 -32 -12.5q-20 0 -32 12.5q-12 12.5 -12 34.5v23h-2q-29 -38 -68 -54q-39 -16 -79 -16q-36 0 -69.5 9q-33.5 9 -59 28q-25.5 19 -40.5 48.5q-15 29.5 -15 70.5q0 62 26.5 98q26.5 36 68.5 54q42 18 94 22.5q52 4.5 103 4.5h42v66q0 34 -25.5 50.5q-25.5 16.5 -68.5 16.5q-32 0 -52 -8.5q-20 -8.5 -34 -18.5q-14 -10 -25.5 -18.5q-11.5 -8.5 -25.5 -8.5q-20 0 -30 11q-10 11 -10 25q0 21 17.5 38q17.5 17 43.5 29.5q26 12.5 57.5 19.5q31.5 7 58.5 7q88 0 134.5 -38q46.5 -38 46.5 -112zM371 261h-19q-42 0 -82.5 -1.5q-40.5 -1.5 -73 -12q-32.5 -10.5 -52 -33q-19.5 -22.5 -19.5 -64.5q0 -22 9.5 -37q9.5 -15 25 -24.5q15.5 -9.5 35.5 -14q20 -4.5 42 -4.5q28 0 52.5 9q24.5 9 42.5 26.5q18 17.5 28.5 44q10.5 26.5 10.5 61.5z" />
<glyph unicode="&#98;" horiz-adv-x="556" d="M521 266q0 -53 -15 -102q-15 -49 -44.5 -87q-29.5 -38 -71.5 -60.5q-42 -22.5 -96 -22.5q-104 0 -142 73l-2 0v-26q0 -22 -12 -34.5q-12 -12.5 -32 -12.5q-20 0 -32 12.5q-12 12.5 -12 34.5v630q0 22 12 34.5q12 12.5 32 12.5q20 0 32 -12.5q12 -12.5 12 -34.5v-205h2q9 12 22 25q13 13 31 23.5q18 10.5 40.5 17q22.5 6.5 48.5 6.5q54 0 96 -22.5q42 -22.5 71.5 -60.5q29.5 -38 44.5 -87q15 -49 15 -102zt0 0zM433 266q0 34 -7.5 68.5q-7.5 34.5 -25 63q-17.5 28.5 -45.5 46.5q-28 18 -68 18q-41 0 -68.5 -18q-27.5 -18 -45 -46.5q-17.5 -28.5 -25 -63q-7.5 -34.5 -7.5 -68.5q0 -34 7.5 -68.5q7.5 -34.5 25 -63q17.5 -28.5 45 -46.5q27.5 -18 68.5 -18q40 0 68 18q28 18 45.5 46.5q17.5 28.5 25 63t7.5 68.5z" />
<glyph unicode="&#99;" horiz-adv-x="444" d="M418 471q0 -14 -10 -25.5q-10 -11.5 -26 -11.5q-13 0 -23 4.5q-10 4.5 -21 9.5q-11 5 -26 9.5q-15 4.5 -37 4.5q-41 0 -70 -18q-29 -18 -47 -46.5q-18 -28.5 -26.5 -63q-8.5 -34.5 -8.5 -68.5q0 -34 8.5 -68.5q8.5 -34.5 26.5 -63q18 -28.5 47 -46.5q29 -18 70 -18q23 0 38.5 4.5q15.5 4.5 27 10.5q11.5 6 20.5 10.5q9 4.5 20 4.5q15 0 24.5 -9.5q9.5 -9.5 9.5 -27.5q0 -25 -35.5 -47q-35.5 -22 -104.5 -22q-61 0 -106 22.5q-45 22.5 -75 60.5q-30 38 -44.5 87q-14.5 49 -14.5 102q0 53 14.5 102q14.5 49 44.5 87q30 38 75 60.5q45 22.5 106 22.5q68 0 105.5 -20t37.5 -47z" />
<glyph unicode="&#100;" horiz-adv-x="556" d="M494 41q0 -22 -12 -34.5q-12 -12.5 -32 -12.5q-20 0 -32 12.5q-12 12.5 -12 34.5v26h-2q-38 -73 -142 -73q-54 0 -96 22.5q-42 22.5 -71.5 60.5q-29.5 38 -44.5 87q-15 49 -15 102q0 53 15 102q15 49 44.5 87q29.5 38 71.5 60.5q42 22.5 96 22.5q26 0 48.5 -6.5q22.5 -6.5 40.5 -17q18 -10.5 31 -23.5q13 -13 22 -25l2 0v205q0 22 12 34.5q12 12.5 32 12.5q20 0 32 -12.5q12 -12.5 12 -34.5zM415 266q0 34 -7.5 68.5q-7.5 34.5 -25 63q-17.5 28.5 -45.5 46.5q-28 18 -68 18q-41 0 -68.5 -18q-27.5 -18 -45 -46.5q-17.5 -28.5 -25 -63q-7.5 -34.5 -7.5 -68.5q0 -34 7.5 -68.5q7.5 -34.5 25 -63q17.5 -28.5 45 -46.5q27.5 -18 68.5 -18q40 0 68 18q28 18 45.5 46.5q17.5 28.5 25 63t7.5 68.5z" />
<glyph unicode="&#101;" horiz-adv-x="520" d="M494 279q0 -23 -10 -35q-10 -12 -39 -12h-331q0 -34 10.5 -63.5q10.5 -29.5 31 -51.5q20.5 -22 49.5 -34.5q29 -12.5 66 -12.5q44 0 73 11q29 11 48.5 24.5q19.5 13.5 33 25q13.5 11.5 25.5 11.5q12 0 22 -10q10 -10 10 -29q0 -16 -18.5 -35q-18.5 -19 -49 -35.5q-30.5 -16.5 -68.5 -27.5q-38 -11 -77 -11q-64 0 -110 22.5q-46 22.5 -76 60.5q-30 38 -44 87q-14 49 -14 102q0 54 16.5 103q16.5 49 47 86.5q30.5 37.5 75 60q44.5 22.5 100.5 22.5q54 0 97 -22.5q43 -22.5 72 -59q29 -36.5 44.5 -83q15.5 -46.5 15.5 -94.5zt0 0zM406 298q0 28 -8.5 57.5q-8.5 29.5 -25.5 53q-17 23.5 -44 38.5q-27 15 -63 15q-41 0 -69 -14q-28 -14 -46 -37.5q-18 -23.5 -26.5 -53q-8.5 -29.5 -9.5 -59.5z" />
<glyph unicode="&#102;" horiz-adv-x="259" d="M280 680q0 -38 -48 -38h-22q-20 0 -28 -9q-8 -9 -8 -26v-75h55q44 0 44 -38q0 -38 -44 -38h-55v-415q0 -22 -12 -34.5q-12 -12.5 -32 -12.5q-20 0 -32 12.5q-12 12.5 -12 34.5v415h-36q-44 0 -44 38q0 38 44 38h36v71q0 58 34.5 86.5q34.5 28.5 82.5 28.5h27q17 0 33.5 -10t16.5 -28z" />
<glyph unicode="&#103;" horiz-adv-x="556" d="M406 495q0 23 14.5 33q14.5 10 32.5 10q13 0 27 -10q14 -10 14 -33v-457q0 -63 -17.5 -110.5q-17.5 -47.5 -49 -79.5q-31.5 -32 -75.5 -48q-44 -16 -98 -16q-34 0 -70 9q-36 9 -66 23q-30 14 -49 31q-19 17 -19 34q0 14 8 27.5q8 13.5 29 13.5q15 0 30.5 -9.5q15.5 -9.5 35.5 -21.5q20 -12 46 -21.5q26 -9.5 62 -9.5q42 0 70 15q28 15 44.5 38.5q16.5 23.5 23.5 52.5q7 29 7 58v46h-2q-20 -35 -55 -55.5q-35 -20.5 -80 -20.5q-56 0 -99.5 22.5q-43.5 22.5 -73.5 60.5q-30 38 -45.5 87q-15.5 49 -15.5 102q0 53 15.5 102q15.5 49 45.5 87q30 38 73.5 60.5q43.5 22.5 99.5 22.5q21 0 41.5 -6q20.5 -6 38.5 -15.5q18 -9.5 32 -21.5q14 -12 23 -24l2 0zM415 266q0 34 -7.5 68.5q-7.5 34.5 -25 63q-17.5 28.5 -45.5 46.5q-28 18 -68 18q-41 0 -68.5 -18q-27.5 -18 -45 -46.5q-17.5 -28.5 -25 -63q-7.5 -34.5 -7.5 -68.5q0 -34 7.5 -68.5q7.5 -34.5 25 -63q17.5 -28.5 45 -46.5q27.5 -18 68.5 -18q40 0 68 18q28 18 45.5 46.5q17.5 28.5 25 63t7.5 68.5z" />
<glyph unicode="&#104;" horiz-adv-x="538" d="M480 41q0 -22 -12 -34.5q-12 -12.5 -32 -12.5q-20 0 -32 12.5q-12 12.5 -12 34.5v290q0 35 -11 60q-11 25 -28.5 40.5q-17.5 15.5 -39.5 23q-22 7.5 -44 7.5q-22 0 -44 -7.5q-22 -7.5 -39.5 -23q-17.5 -15.5 -28.5 -40.5q-11 -25 -11 -60v-290q0 -22 -12 -34.5q-12 -12.5 -32 -12.5q-20 0 -32 12.5q-12 12.5 -12 34.5v630q0 22 12 34.5q12 12.5 32 12.5q20 0 32 -12.5q12 -12.5 12 -34.5v-203h2q29 38 68 54q39 16 79 16q31 0 63.5 -10.5q32.5 -10.5 59.5 -34.5q27 -24 44.5 -62.5q17.5 -38.5 17.5 -94.5l0 -295z" />
<glyph unicode="&#105;" horiz-adv-x="204" d="M156 664q0 -23 -15.5 -38.5q-15.5 -15.5 -38.5 -15.5q-23 0 -38.5 15.5q-15.5 15.5 -15.5 38.5q0 23 15.5 38.5q15.5 15.5 38.5 15.5q23 0 38.5 -15.5q15.5 -15.5 15.5 -38.5zt0 0zM146 41q0 -22 -12 -34.5q-12 -12.5 -32 -12.5q-20 0 -32 12.5q-12 12.5 -12 34.5v450q0 22 12 34.5q12 12.5 32 12.5q20 0 32 -12.5q12 -12.5 12 -34.5z" />
<glyph unicode="&#106;" horiz-adv-x="204" d="M156 664q0 -23 -15.5 -38.5q-15.5 -15.5 -38.5 -15.5q-23 0 -38.5 15.5q-15.5 15.5 -15.5 38.5q0 23 15.5 38.5q15.5 15.5 38.5 15.5q23 0 38.5 -15.5q15.5 -15.5 15.5 -38.5zt0 0zM146 -169q0 -22 -12 -34.5q-12 -12.5 -32 -12.5q-20 0 -32 12.5q-12 12.5 -12 34.5v660q0 22 12 34.5q12 12.5 32 12.5q20 0 32 -12.5q12 -12.5 12 -34.5z" />
<glyph unicode="&#107;" horiz-adv-x="463" d="M456 29q0 -15 -11.5 -25q-11.5 -10 -25.5 -10q-16 0 -25.5 5.5q-9.5 5.5 -25.5 21.5l-222 232v-212q0 -22 -12 -34.5q-12 -12.5 -32 -12.5q-20 0 -32 12.5q-12 12.5 -12 34.5v630q0 22 12 34.5q12 12.5 32 12.5q20 0 32 -12.5q12 -12.5 12 -34.5v-321l192 161q14 11 26.5 19q12.5 8 23.5 8q17 0 27 -11q10 -11 10 -28q0 -10 -4.5 -19q-4.5 -9 -17.5 -19l-200 -158l232 -229q13 -13 17 -22.5t4 -22.5z" />
<glyph unicode="&#108;" horiz-adv-x="204" d="M146 41q0 -22 -12 -34.5q-12 -12.5 -32 -12.5q-20 0 -32 12.5q-12 12.5 -12 34.5v630q0 22 12 34.5q12 12.5 32 12.5q20 0 32 -12.5q12 -12.5 12 -34.5l0 -630z" />
<glyph unicode="&#109;" horiz-adv-x="834" d="M776 41q0 -22 -12 -34.5q-12 -12.5 -32 -12.5q-20 0 -32 12.5q-12 12.5 -12 34.5v298q0 57 -30 90q-30 33 -84 33q-54 0 -83.5 -33q-29.5 -33 -29.5 -90v-298q0 -22 -12 -34.5q-12 -12.5 -32 -12.5q-20 0 -32 12.5q-12 12.5 -12 34.5v298q0 57 -30 90q-30 33 -84 33q-54 0 -83.5 -33q-29.5 -33 -29.5 -90v-298q0 -22 -12 -34.5q-12 -12.5 -32 -12.5q-20 0 -32 12.5q-12 12.5 -12 34.5v450q0 22 12 34.5q12 12.5 32 12.5q20 0 32 -12.5q12 -12.5 12 -34.5v-18h2q8 10 18.5 21.5q10.5 11.5 26.5 21q16 9.5 37.5 16q21.5 6.5 51.5 6.5q39 0 77.5 -19.5q38.5 -19.5 68.5 -70.5q29 42 67 66q38 24 96 24q31 0 63.5 -10.5q32.5 -10.5 59.5 -34.5q27 -24 44.5 -62.5q17.5 -38.5 17.5 -94.5l0 -295z" />
<glyph unicode="&#110;" horiz-adv-x="538" d="M480 41q0 -22 -12 -34.5q-12 -12.5 -32 -12.5q-20 0 -32 12.5q-12 12.5 -12 34.5v290q0 35 -11 60q-11 25 -28.5 40.5q-17.5 15.5 -39.5 23q-22 7.5 -44 7.5q-22 0 -44 -7.5q-22 -7.5 -39.5 -23q-17.5 -15.5 -28.5 -40.5q-11 -25 -11 -60v-290q0 -22 -12 -34.5q-12 -12.5 -32 -12.5q-20 0 -32 12.5q-12 12.5 -12 34.5v450q0 22 12 34.5q12 12.5 32 12.5q20 0 32 -12.5q12 -12.5 12 -34.5v-23h2q29 38 68 54q39 16 79 16q31 0 63.5 -10.5q32.5 -10.5 59.5 -34.5q27 -24 44.5 -62.5q17.5 -38.5 17.5 -94.5l0 -295z" />
<glyph unicode="&#111;" horiz-adv-x="538" d="M503 266q0 -53 -15.5 -102q-15.5 -49 -45.5 -87q-30 -38 -73.5 -60.5q-43.5 -22.5 -99.5 -22.5q-56 0 -99.5 22.5q-43.5 22.5 -73.5 60.5q-30 38 -45.5 87q-15.5 49 -15.5 102q0 53 15.5 102q15.5 49 45.5 87q30 38 73.5 60.5q43.5 22.5 99.5 22.5q56 0 99.5 -22.5q43.5 -22.5 73.5 -60.5q30 -38 45.5 -87q15.5 -49 15.5 -102zt0 0zM415 266q0 34 -7.5 68.5q-7.5 34.5 -25 63q-17.5 28.5 -45.5 46.5q-28 18 -68 18q-41 0 -68.5 -18q-27.5 -18 -45 -46.5q-17.5 -28.5 -25 -63q-7.5 -34.5 -7.5 -68.5q0 -34 7.5 -68.5q7.5 -34.5 25 -63q17.5 -28.5 45 -46.5q27.5 -18 68.5 -18q40 0 68 18q28 18 45.5 46.5q17.5 28.5 25 63t7.5 68.5z" />
<glyph unicode="&#112;" horiz-adv-x="556" d="M521 266q0 -53 -15 -102q-15 -49 -44.5 -87q-29.5 -38 -71.5 -60.5q-42 -22.5 -96 -22.5q-26 0 -48.5 6.5q-22.5 6.5 -40.5 17q-18 10.5 -31 23.5q-13 13 -22 25l-2 0v-235q0 -22 -12 -34.5q-12 -12.5 -32 -12.5q-20 0 -32 12.5q-12 12.5 -12 34.5v660q0 22 12 34.5q12 12.5 32 12.5q20 0 32 -12.5q12 -12.5 12 -34.5v-26h2q38 73 142 73q54 0 96 -22.5q42 -22.5 71.5 -60.5q29.5 -38 44.5 -87q15 -49 15 -102zt0 0zM433 266q0 34 -7.5 68.5q-7.5 34.5 -25 63q-17.5 28.5 -45.5 46.5q-28 18 -68 18q-41 0 -68.5 -18q-27.5 -18 -45 -46.5q-17.5 -28.5 -25 -63q-7.5 -34.5 -7.5 -68.5q0 -34 7.5 -68.5q7.5 -34.5 25 -63q17.5 -28.5 45 -46.5q27.5 -18 68.5 -18q40 0 68 18q28 18 45.5 46.5q17.5 28.5 25 63t7.5 68.5z" />
<glyph unicode="&#113;" horiz-adv-x="556" d="M494 -169q0 -22 -12 -34.5q-12 -12.5 -32 -12.5q-20 0 -32 12.5q-12 12.5 -12 34.5v235h-2q-9 -12 -22 -25q-13 -13 -31 -23.5q-18 -10.5 -40.5 -17q-22.5 -6.5 -48.5 -6.5q-54 0 -96 22.5q-42 22.5 -71.5 60.5q-29.5 38 -44.5 87q-15 49 -15 102q0 53 15 102q15 49 44.5 87q29.5 38 71.5 60.5q42 22.5 96 22.5q104 0 142 -73l2 0v26q0 22 12 34.5q12 12.5 32 12.5q20 0 32 -12.5q12 -12.5 12 -34.5zM415 266q0 34 -7.5 68.5q-7.5 34.5 -25 63q-17.5 28.5 -45.5 46.5q-28 18 -68 18q-41 0 -68.5 -18q-27.5 -18 -45 -46.5q-17.5 -28.5 -25 -63q-7.5 -34.5 -7.5 -68.5q0 -34 7.5 -68.5q7.5 -34.5 25 -63q17.5 -28.5 45 -46.5q27.5 -18 68.5 -18q40 0 68 18q28 18 45.5 46.5q17.5 28.5 25 63t7.5 68.5z" />
<glyph unicode="&#114;" horiz-adv-x="315" d="M317 493q0 -38 -55 -48q-20 -3 -40.5 -12.5q-20.5 -9.5 -37 -27.5q-16.5 -18 -27.5 -45q-11 -27 -11 -66v-253q0 -22 -12 -34.5q-12 -12.5 -32 -12.5q-20 0 -32 12.5q-12 12.5 -12 34.5v450q0 22 12 34.5q12 12.5 32 12.5q20 0 32 -12.5q12 -12.5 12 -34.5v-45h2q7 15 20 31.5q13 16.5 28.5 30q15.5 13.5 34 22q18.5 8.5 37.5 8.5q23 0 36 -13t13 -32z" />
<glyph unicode="&#115;" horiz-adv-x="444" d="M418 158q0 -42 -16.5 -72.5q-16.5 -30.5 -43.5 -51q-27 -20.5 -62 -30.5q-35 -10 -72 -10q-42 0 -79 9.5q-37 9.5 -65 24q-28 14.5 -44 32.5q-16 18 -16 35q0 18 13 29q13 11 27 11q15 0 29 -10q14 -10 33 -22.5q19 -12.5 44 -22.5q25 -10 61 -10q48 0 75.5 22.5q27.5 22.5 27.5 49.5q0 26 -21 44q-21 18 -52.5 33q-31.5 15 -68.5 29.5q-37 14.5 -68.5 33q-31.5 18.5 -52.5 44q-21 25.5 -21 62.5q0 37 16 65q16 28 41.5 47q25.5 19 58 28.5q32.5 9.5 65.5 9.5q37 0 69 -7.5q32 -7.5 56 -19.5q24 -12 38 -28.5q14 -16.5 14 -34.5q0 -14 -10 -27q-10 -13 -30 -13q-14 0 -25.5 8.5q-11.5 8.5 -26 18.5q-14.5 10 -34.5 18.5q-20 8.5 -51 8.5q-38 0 -65.5 -16.5q-27.5 -16.5 -27.5 -50.5q0 -23 21 -39q21 -16 52.5 -29.5q31.5 -13.5 68.5 -27q37 -13.5 68.5 -32q31.5 -18.5 52.5 -45t21 -64.5z" />
<glyph unicode="&#116;" horiz-adv-x="260" d="M254 494q0 -38 -44 -38h-36v-415q0 -22 -12 -34.5q-12 -12.5 -32 -12.5q-20 0 -32 12.5q-12 12.5 -12 34.5v415h-36q-44 0 -44 38q0 38 44 38h36v115q0 22 12 34.5q12 12.5 32 12.5q20 0 32 -12.5q12 -12.5 12 -34.5v-115h36q44 0 44 -38z" />
<glyph unicode="&#117;" horiz-adv-x="538" d="M480 41q0 -22 -12 -34.5q-12 -12.5 -32 -12.5q-20 0 -32 12.5q-12 12.5 -12 34.5v24l-2 -1q-29 -38 -68 -54q-39 -16 -79 -16q-31 0 -63.5 10.5q-32.5 10.5 -59.5 34.5q-27 24 -44.5 62.5q-17.5 38.5 -17.5 94.5v295q0 22 12 34.5q12 12.5 32 12.5q20 0 32 -12.5q12 -12.5 12 -34.5v-290q0 -35 11 -60q11 -25 28.5 -40.5q17.5 -15.5 39.5 -23q22 -7.5 44 -7.5q22 0 44 7.5q22 7.5 39.5 23q17.5 15.5 28.5 40.5q11 25 11 60v290q0 22 12 34.5q12 12.5 32 12.5q20 0 32 -12.5q12 -12.5 12 -34.5l0 -450z" />
<glyph unicode="&#118;" horiz-adv-x="426" d="M421 497q0 -8 -2 -16q-2 -8 -7 -20l-153 -429q-7 -20 -16 -29q-9 -9 -30 -9q-21 0 -30 9q-9 9 -16 29l-153 429q-5 12 -7 20q-2 8 -2 16q0 20 12 30.5q12 10.5 28 10.5q22 0 31.5 -9.5q9.5 -9.5 14.5 -24.5l121 -368h2l121 368q5 15 14.5 24.5q9.5 9.5 31.5 9.5q16 0 28 -10.5t12 -30.5z" />
<glyph unicode="&#119;" horiz-adv-x="742" d="M740 499q0 -7 -2 -15.5q-2 -8.5 -5 -18.5l-146 -425q-9 -26 -20.5 -36q-11.5 -10 -30.5 -10q-18 0 -30 10q-12 10 -20 36l-114 359h-2l-114 -359q-8 -26 -20 -36q-12 -10 -30 -10q-19 0 -30.5 10q-11.5 10 -20.5 36l-146 425q-3 10 -5 18.5q-2 8.5 -2 15.5q0 13 9.5 26q9.5 13 32.5 13q14 0 27 -8q13 -8 22 -37l113 -363h2l111 350q9 29 18.5 43.5q9.5 14.5 33.5 14.5q24 0 33.5 -14.5q9.5 -14.5 18.5 -43.5l111 -350h2l113 363q9 29 22 37q13 8 27 8q23 0 32.5 -13t9.5 -26z" />
<glyph unicode="&#120;" horiz-adv-x="464" d="M458 34q0 -17 -11.5 -28.5q-11.5 -11.5 -28.5 -11.5q-25 0 -39 20l-147 204l-147 -204q-14 -20 -39 -20q-17 0 -28.5 11.5q-11.5 11.5 -11.5 28.5q0 8 3.5 18q3.5 10 14.5 24l157 206l-138 181q-15 19 -15 35q0 17 10.5 28.5q10.5 11.5 26.5 11.5q15 0 23 -6q8 -6 15 -14l129 -172l129 172q7 8 15 14q8 6 23 6q16 0 26.5 -11.5q10.5 -11.5 10.5 -28.5q0 -16 -15 -35l-138 -181l157 -206q11 -14 14.5 -24t3.5 -18z" />
<glyph unicode="&#121;" horiz-adv-x="444" d="M427 501q0 -8 -2 -17q-2 -9 -10 -32l-222 -635q-5 -14 -15.5 -23.5q-10.5 -9.5 -27.5 -9.5q-15 0 -27.5 10q-12.5 10 -12.5 27q0 8 2.5 17q2.5 9 10.5 32l56 149l-150 433q-8 23 -10 32q-2 9 -2 17q0 17 12.5 27q12.5 10 27.5 10q17 0 28 -9.5q11 -9.5 16 -23.5l122 -365h2l120 365q5 14 15 23.5q10 9.5 27 9.5q15 0 27.5 -10t12.5 -27z" />
<glyph unicode="&#122;" horiz-adv-x="444" d="M424 38q0 -38 -44 -38h-317q-26 0 -34.5 10q-8.5 10 -8.5 21q0 11 4 21q4 10 14 24l254 380h-218q-44 0 -44 38q0 38 44 38h296q26 0 34.5 -10q8.5 -10 8.5 -21q0 -11 -4 -21q-4 -10 -14 -24l-257 -378v-2h242q44 0 44 -38z" />
<glyph unicode="&#123;" horiz-adv-x="241" d="M256 -52q0 -30 -40 -30h-38q-52 0 -77 28q-25 28 -25 80v122q0 26 -0.5 48q-0.5 22 -5 39q-4.5 17 -14 28.5q-9.5 11.5 -27.5 16.5q-23 7 -33.5 14q-10.5 7 -10.5 24q0 17 10.5 24.5q10.5 7.5 33.5 13.5q18 4 27.5 15.5q9.5 11.5 14 28.5q4.5 17 5 39.5q0.5 22.5 0.5 48.5v122q0 52 25 80q25 28 77 28h38q40 0 40 -30q0 -30 -40 -30h-14q-20 0 -32 -12.5q-12 -12.5 -12 -35.5v-158q0 -41 -9.5 -66.5q-9.5 -25.5 -23 -39.5q-13.5 -14 -29.5 -20q-16 -6 -29 -7l0 -2q13 -2 29 -7.5q16 -5.5 29.5 -19.5q13.5 -14 23 -39.5q9.5 -25.5 9.5 -66.5v-158q0 -23 12 -35.5q12 -12.5 32 -12.5h14q40 0 40 -30z" />
<glyph unicode="&#124;" horiz-adv-x="222" d="M152 37q0 -19 -10 -31q-10 -12 -31 -12q-21 0 -31 12q-10 12 -10 31v692q0 19 10 31q10 12 31 12q21 0 31 -12q10 -12 10 -31l0 -692z" />
<glyph unicode="&#125;" horiz-adv-x="241" d="M256 318q0 -17 -10.5 -24.5q-10.5 -7.5 -33.5 -13.5q-18 -5 -27.5 -16q-9.5 -11 -14 -28q-4.5 -17 -5 -39.5q-0.5 -22.5 -0.5 -48.5v-122q0 -52 -25 -80q-25 -28 -77 -28h-38q-40 0 -40 30q0 30 40 30h14q20 0 32 12.5q12 12.5 12 35.5v158q0 41 9.5 66.5q9.5 25.5 23 39.5q13.5 14 29.5 19.5q16 5.5 29 7.5l0 2q-13 1 -29 7q-16 6 -29.5 20q-13.5 14 -23 39.5q-9.5 25.5 -9.5 66.5v158q0 23 -12 35.5q-12 12.5 -32 12.5h-14q-40 0 -40 30q0 30 40 30h38q52 0 77 -28q25 -28 25 -80v-122q0 -26 0.5 -48q0.5 -22 5 -39q4.5 -17 14 -28.5q9.5 -11.5 27.5 -16.5q23 -7 33.5 -14t10.5 -24z" />
<glyph unicode="&#126;" horiz-adv-x="600" d="M536 296q0 -21 -11.5 -42q-11.5 -21 -30 -37q-18.5 -16 -42 -26q-23.5 -10 -46.5 -10q-35 0 -63.5 10.5q-28.5 10.5 -54.5 23.5q-26 13 -49 23.5q-23 10.5 -42 10.5q-16 0 -26.5 -11q-10.5 -11 -20.5 -23.5q-10 -12.5 -21.5 -23q-11.5 -10.5 -29.5 -10.5q-15 1 -25 9.5q-10 8.5 -10 19.5q0 21 11.5 42q11.5 21 30 37q18.5 16 42 26q23.5 10 46.5 10q35 0 63.5 -10.5q28.5 -10.5 54.5 -23.5q26 -13 49 -23.5q23 -10.5 42 -10.5q16 0 26.5 11q10.5 11 20 23.5q9.5 12.5 21.5 23q12 10.5 30 10.5q15 -1 25 -9.5t10 -19.5z" />
<glyph unicode="&#160;" horiz-adv-x="250" />
<glyph unicode="&#163;" horiz-adv-x="593" d="M563 41q0 -21 -12 -31q-12 -10 -31 -10h-400q-21 0 -37 8q-16 8 -16 34q0 16 18 34q18 18 39 42q21 24 39 56q18 32 18 77q0 14 -1 31q-1 17 -6 34l-101 0q-19 0 -31 10q-12 10 -12 31q0 21 12 31q12 10 31 10h77q-18 32 -33.5 67.5q-15.5 35.5 -15.5 75.5q0 39 18 72q18 33 48 56q30 23 69 36q39 13 81 13q45 0 86 -16.5q41 -16.5 73 -42.5q32 -26 51 -57q19 -31 19 -61q0 -20 -11.5 -31.5q-11.5 -11.5 -30.5 -11.5q-17 0 -26.5 10q-9.5 10 -17.5 25.5q-8 15.5 -16.5 33.5q-8.5 18 -23.5 33.5q-15 15.5 -39.5 25.5q-24.5 10 -62.5 10q-24 0 -47.5 -6.5q-23.5 -6.5 -41.5 -19.5q-18 -13 -29 -31.5q-11 -18.5 -11 -43.5q0 -20 5 -37.5q5 -17.5 13 -34q8 -16.5 17 -33q9 -16.5 18 -32.5l129 0q19 0 31 -10q12 -10 12 -31q0 -21 -12 -31q-12 -10 -31 -10h-109q2 -13 4.5 -28q2.5 -15 2.5 -38q0 -18 -5.5 -39.5q-5.5 -21.5 -16.5 -44q-11 -22.5 -27 -44.5q-16 -22 -37 -40l337 0q19 0 31 -10t12 -31z" />
<glyph unicode="&#166;" horiz-adv-x="222" d="M152 525q0 -19 -10 -31q-10 -12 -31 -12q-21 0 -31 12q-10 12 -10 31v204q0 19 10 31q10 12 31 12q21 0 31 -12q10 -12 10 -31zM152 37q0 -19 -10 -31q-10 -12 -31 -12q-21 0 -31 12q-10 12 -10 31v204q0 19 10 31q10 12 31 12q21 0 31 -12q10 -12 10 -31z" />
<glyph unicode="&#167;" horiz-adv-x="556" d="M528 226q0 -25 -8 -49.5q-8 -24.5 -22.5 -47q-14.5 -22.5 -34.5 -41q-20 -18.5 -44 -31.5q65 -44 65 -118q0 -37 -18.5 -65.5q-18.5 -28.5 -48 -48.5q-29.5 -20 -66.5 -30.5q-37 -10.5 -74 -10.5q-57 0 -100 16q-43 16 -71.5 38.5q-28.5 22.5 -43 47.5q-14.5 25 -14.5 42q0 27 12 38.5q12 11.5 32 11.5q16 0 26 -8.5q10 -8.5 18 -22q8 -13.5 16.5 -28.5q8.5 -15 23.5 -28.5q15 -13.5 37.5 -22q22.5 -8.5 58.5 -8.5q60 0 92 23.5q32 23.5 32 56.5q0 32 -27.5 54q-27.5 22 -68 41q-40.5 19 -88.5 38q-48 19 -88.5 45q-40.5 26 -68 62.5q-27.5 36.5 -27.5 89.5q0 33 9 59q9 26 25.5 46.5q16.5 20.5 38.5 36q22 15.5 49 29.5q-35 25 -50 50q-15 25 -15 63q0 39 15.5 69.5q15.5 30.5 43.5 51.5q28 21 66.5 32q38.5 11 85.5 11q45 0 82.5 -14q37.5 -14 65 -35.5q27.5 -21.5 42.5 -48.5q15 -27 15 -53q0 -17 -10 -31.5q-10 -14.5 -30 -14.5q-16 0 -25.5 9q-9.5 9 -16.5 22.5q-7 13.5 -15 29q-8 15.5 -21.5 29q-13.5 13.5 -35.5 22.5q-22 9 -57 9q-48 0 -82.5 -21.5q-34.5 -21.5 -34.5 -62.5q0 -32 26.5 -54q26.5 -22 65.5 -41q39 -19 85.5 -38q46.5 -19 85.5 -45q39 -26 65.5 -63q26.5 -37 26.5 -91zt0 0zM440 223q0 16 -2.5 30.5q-2.5 14.5 -12 28.5q-9.5 14 -27 27.5q-17.5 13.5 -47.5 27.5l-125 58q-22 -9 -42 -20q-20 -11 -35 -25q-15 -14 -24 -32q-9 -18 -9 -41q0 -39 32 -67q32 -28 92 -57l114 -56q27 20 44 37q17 17 26 32q9 15 12.5 29t3.5 28z" />
<glyph unicode="&#168;" horiz-adv-x="444" d="M369 658q0 -23 -15.5 -38.5q-15.5 -15.5 -38.5 -15.5q-23 0 -38.5 15.5q-15.5 15.5 -15.5 38.5q0 23 15.5 38.5q15.5 15.5 38.5 15.5q23 0 38.5 -15.5q15.5 -15.5 15.5 -38.5zt0 0zM183 658q0 -23 -15.5 -38.5q-15.5 -15.5 -38.5 -15.5q-23 0 -38.5 15.5q-15.5 15.5 -15.5 38.5q0 23 15.5 38.5q15.5 15.5 38.5 15.5q23 0 38.5 -15.5t15.5 -38.5z" />
<glyph unicode="&#169;" horiz-adv-x="800" d="M762 356q0 -75 -28.5 -141q-28.5 -66 -77.5 -115q-49 -49 -115 -77.5q-66 -28.5 -141 -28.5q-75 0 -141 28.5q-66 28.5 -115 77.5q-49 49 -77.5 115q-28.5 66 -28.5 141q0 75 28.5 141q28.5 66 77.5 115q49 49 115 77.5q66 28.5 141 28.5q75 0 141 -28.5q66 -28.5 115 -77.5q49 -49 77.5 -115q28.5 -66 28.5 -141zt0 0zM680 356q0 59 -22.5 111q-22.5 52 -60.5 91q-38 39 -89 61.5q-51 22.5 -108 22.5q-57 0 -108 -22.5q-51 -22.5 -89 -61.5q-38 -39 -60.5 -91q-22.5 -52 -22.5 -111q0 -59 22.5 -111q22.5 -52 60.5 -91q38 -39 89 -61.5q51 -22.5 108 -22.5q57 0 108 22.5q51 22.5 89 61.5q38 39 60.5 91q22.5 52 22.5 111zt0 0zM581 267q0 -12 -11 -34q-11 -22 -33 -43.5q-22 -21.5 -56 -37q-34 -15.5 -79 -15.5q-48 0 -87 17q-39 17 -66.5 47q-27.5 30 -43 70q-15.5 40 -15.5 87q0 47 14.5 87.5q14.5 40.5 42 70q27.5 29.5 67 46.5q39.5 17 88.5 17q47 0 81 -15q34 -15 55.5 -35q21.5 -20 32 -42q10.5 -22 10.5 -35q0 -13 -9 -20.5q-9 -7.5 -24 -7.5q-20 0 -30.5 14q-10.5 14 -22.5 30.5q-12 16.5 -32.5 30.5q-20.5 14 -60.5 14q-64 0 -97 -44q-33 -44 -33 -111q0 -31 9 -59q9 -28 26 -49.5q17 -21.5 41 -34q24 -12.5 54 -12.5q40 0 61.5 14.5q21.5 14.5 35 31.5q13.5 17 23.5 31.5q10 14.5 27 14.5q10 0 21 -5.5t11 -22.5z" />
<glyph unicode="&#171;" horiz-adv-x="407" d="M369 99q0 -18 -13 -26.5q-13 -8.5 -27 -8.5q-11 0 -19 7q-8 7 -15 19l-99 178l99 178q7 12 15 19q8 7 19 7q14 0 27 -8.5q13 -8.5 13 -26.5q0 -12 -11 -31l-83 -138l83 -138q11 -19 11 -31zt0 0zM211 99q0 -18 -13 -26.5q-13 -8.5 -27 -8.5q-11 0 -19 7q-8 7 -15 19l-99 178l99 178q7 12 15 19q8 7 19 7q14 0 27 -8.5q13 -8.5 13 -26.5q0 -12 -11 -31l-83 -138l83 -138q11 -19 11 -31z" />
<glyph unicode="&#172;" horiz-adv-x="600" d="M553 151q0 -19 -10 -31q-10 -12 -31 -12q-21 0 -31 12q-10 12 -10 31v165h-381q-19 0 -31 10q-12 10 -12 31q0 21 12 31q12 10 31 10h422q21 0 31 -12q10 -12 10 -31l0 -204z" />
<glyph unicode="&#173;" horiz-adv-x="352" d="M317 268q0 -16 -11 -27q-11 -11 -27 -11h-206q-16 0 -27 11q-11 11 -11 27q0 16 11 27q11 11 27 11h206q16 0 27 -11t11 -27z" />
<glyph unicode="&#174;" horiz-adv-x="800" d="M762 356q0 -75 -28.5 -141q-28.5 -66 -77.5 -115q-49 -49 -115 -77.5q-66 -28.5 -141 -28.5q-75 0 -141 28.5q-66 28.5 -115 77.5q-49 49 -77.5 115q-28.5 66 -28.5 141q0 75 28.5 141q28.5 66 77.5 115q49 49 115 77.5q66 28.5 141 28.5q75 0 141 -28.5q66 -28.5 115 -77.5q49 -49 77.5 -115q28.5 -66 28.5 -141zt0 0zM680 356q0 59 -22.5 111q-22.5 52 -60.5 91q-38 39 -89 61.5q-51 22.5 -108 22.5q-57 0 -108 -22.5q-51 -22.5 -89 -61.5q-38 -39 -60.5 -91q-22.5 -52 -22.5 -111q0 -59 22.5 -111q22.5 -52 60.5 -91q38 -39 89 -61.5q51 -22.5 108 -22.5q57 0 108 22.5q51 22.5 89 61.5q38 39 60.5 91q22.5 52 22.5 111zt0 0zM557 439q0 -29 -8 -50q-8 -21 -22 -34.5q-14 -13.5 -33 -20.5q-19 -7 -40 -10l89 -136q3 -5 6.5 -12.5q3.5 -7.5 3.5 -12.5q0 -8 -12 -12.5q-12 -4.5 -25 -4.5q-15 0 -23.5 5q-8.5 5 -16.5 17l-95 153h-64v-143q0 -32 -33 -32q-33 0 -33 32v359q0 21 23 21h132q75 0 113 -25.5q38 -25.5 38 -93.5zt0 0zM491 444q0 19 -8.5 29.5q-8.5 10.5 -21.5 16q-13 5.5 -29.5 7q-16.5 1.5 -32.5 1.5h-82v-117h76q19 0 37 1.5q18 1.5 31.5 8q13.5 6.5 21.5 19t8 34.5z" />
<glyph unicode="&#176;" horiz-adv-x="400" d="M343 575q0 -30 -11 -56q-11 -26 -30.5 -45.5q-19.5 -19.5 -45.5 -30.5q-26 -11 -56 -11q-30 0 -56 11q-26 11 -45.5 30.5q-19.5 19.5 -30.5 45.5q-11 26 -11 56q0 30 11 56q11 26 30.5 45.5q19.5 19.5 45.5 30.5q26 11 56 11q30 0 56 -11q26 -11 45.5 -30.5q19.5 -19.5 30.5 -45.5q11 -26 11 -56zt0 0zM289 575q0 37 -26 63q-26 26 -63 26q-37 0 -63 -26q-26 -26 -26 -63q0 -37 26 -63q26 -26 63 -26q37 0 63 26t26 63z" />
<glyph unicode="&#177;" horiz-adv-x="600" d="M553 312q0 -21 -12 -31q-12 -10 -31 -10h-169v-110q0 -19 -10 -31q-10 -12 -31 -12q-21 0 -31 12q-10 12 -10 31v110h-169q-19 0 -31 10q-12 10 -12 31q0 21 12 31q12 10 31 10h169v110q0 19 10 31q10 12 31 12q21 0 31 -12q10 -12 10 -31v-110h169q19 0 31 -10q12 -10 12 -31zt0 0zM553 41q0 -21 -12 -31q-12 -10 -31 -10h-420q-19 0 -31 10q-12 10 -12 31q0 21 12 31q12 10 31 10h420q19 0 31 -10t12 -31z" />
<glyph unicode="&#180;" horiz-adv-x="444" d="M333 676q0 -9 -7 -19q-7 -10 -28 -18l-115 -47q-13 -5 -20 -7q-7 -2 -14 -2q-20 0 -29 15.5q-9 15.5 -9 26.5q0 9 7 19q7 10 28 18l115 47q13 5 20 7q7 2 14 2q20 0 29 -15.5t9 -26.5z" />
<glyph unicode="&#181;" horiz-adv-x="538" d="M480 41q0 -22 -12 -34.5q-12 -12.5 -32 -12.5q-33 0 -41 29q-26 -16 -58 -22.5q-32 -6.5 -68 -6.5q-38 0 -68.5 10q-30.5 10 -54.5 36l0 -209q0 -22 -12 -34.5q-12 -12.5 -32 -12.5q-20 0 -32 12.5q-12 12.5 -12 34.5v660q0 22 12 34.5q12 12.5 32 12.5q20 0 32 -12.5q12 -12.5 12 -34.5v-282q0 -74 27.5 -106.5q27.5 -32.5 95.5 -32.5q68 0 95.5 32.5q27.5 32.5 27.5 106.5v282q0 22 12 34.5q12 12.5 32 12.5q20 0 32 -12.5q12 -12.5 12 -34.5l0 -450z" />
<glyph unicode="&#182;" horiz-adv-x="600" d="M521 -173q0 -19 -10 -31q-10 -12 -31 -12q-21 0 -31 12q-10 12 -10 31v819h-115v-819q0 -19 -10 -31q-10 -12 -31 -12q-21 0 -31 12q-10 12 -10 31v517q-48 0 -87.5 13.5q-39.5 13.5 -67.5 38.5q-28 25 -43.5 58.5q-15.5 33.5 -15.5 74.5q0 40 16 73.5q16 33.5 48 58q32 24.5 79.5 38q47.5 13.5 111.5 13.5h191q25 0 36 -14q11 -14 11 -34l0 -837z" />
<glyph unicode="&#183;" horiz-adv-x="250" d="M179 303q0 -23 -15.5 -38.5q-15.5 -15.5 -38.5 -15.5q-23 0 -38.5 15.5q-15.5 15.5 -15.5 38.5q0 23 15.5 38.5q15.5 15.5 38.5 15.5q23 0 38.5 -15.5t15.5 -38.5z" />
<glyph unicode="&#187;" horiz-adv-x="407" d="M270 90q-7 -12 -15 -19q-8 -7 -19 -7q-14 0 -27 8.5q-13 8.5 -13 26.5q0 12 11 31l83 138l-83 138q-11 19 -11 31q0 18 13 26.5q13 8.5 27 8.5q11 0 19 -7q8 -7 15 -19l99 -178zM112 90q-7 -12 -15 -19q-8 -7 -19 -7q-14 0 -27 8.5q-13 8.5 -13 26.5q0 12 11 31l83 138l-83 138q-11 19 -11 31q0 18 13 26.5q13 8.5 27 8.5q11 0 19 -7q8 -7 15 -19l99 -178z" />
<glyph unicode="&#305;" horiz-adv-x="204" d="M146 41q0 -22 -12 -34.5q-12 -12.5 -32 -12.5q-20 0 -32 12.5q-12 12.5 -12 34.5v450q0 22 12 34.5q12 12.5 32 12.5q20 0 32 -12.5q12 -12.5 12 -34.5l0 -450z" />
<glyph unicode="&#402;" horiz-adv-x="536" d="M454 680q0 -18 -14 -25q-14 -7 -43 -7q-35 0 -53 -25.5q-18 -25.5 -28 -79.5l-20 -111h62q16 0 27 -11q11 -11 11 -27q0 -16 -11 -27q-11 -11 -27 -11h-75l-72 -396q-8 -45 -18.5 -78q-10.5 -33 -28.5 -54.5q-18 -21.5 -46.5 -32.5q-28.5 -11 -71.5 -11q-35 0 -50 11.5q-15 11.5 -15 28.5q0 37 45 37h41q26 0 39.5 30.5q13.5 30.5 24.5 93.5l66 371h-50q-16 0 -27 11q-11 11 -11 27q0 16 11 27q11 11 27 11h63l22 124q15 85 50 123.5q35 38.5 106 38.5q35 0 50.5 -11t15.5 -27z" />
<glyph unicode="&#728;" horiz-adv-x="444" d="M222 661q23 0 37 9q14 9 24.5 19.5q10.5 10.5 19.5 19.5q9 9 23 9q14 0 25 -10.5q11 -10.5 11 -25.5q0 -16 -10.5 -33q-10.5 -17 -29.5 -31.5q-19 -14.5 -44.5 -23.5q-25.5 -9 -55.5 -9q-30 0 -55.5 9q-25.5 9 -44.5 23.5q-19 14.5 -29.5 31.5q-10.5 17 -10.5 33q0 15 11 25.5q11 10.5 25 10.5q13 0 22.5 -9q9.5 -9 20 -19.5q10.5 -10.5 24.5 -19.5t37 -9z" />
<glyph unicode="&#894;" horiz-adv-x="250" d="M176 381q0 -21 -15 -36q-15 -15 -36 -15q-21 0 -36 15q-15 15 -15 36q0 21 15 36q15 15 36 15q21 0 36 -15q15 -15 15 -36zt0 0zM176 58q0 -15 -11 -37l-56 -110q-8 -14 -17.5 -25.5q-9.5 -11.5 -29.5 -11.5q-16 0 -28 10.5q-12 10.5 -12 27.5q0 15 11 37l56 110q8 14 17.5 25.5q9.5 11.5 29.5 11.5q16 0 28 -10.5t12 -27.5z" />
<glyph unicode="&#916;" horiz-adv-x="556" d="M552 30q0 -14 -10.5 -25q-10.5 -11 -28.5 -11h-470q-18 0 -28.5 11q-10.5 11 -10.5 25q0 16 6 34l217 606q8 22 18 35q10 13 33 13q23 0 33 -13q10 -13 18 -35l217 -606q6 -18 6 -34zt0 0zM277 570l-174 -500h349l-173 500z" />
<glyph unicode="&#956;" horiz-adv-x="538" d="M480 41q0 -22 -12 -34.5q-12 -12.5 -32 -12.5q-33 0 -41 29q-26 -16 -58 -22.5q-32 -6.5 -68 -6.5q-38 0 -68.5 10q-30.5 10 -54.5 36l0 -209q0 -22 -12 -34.5q-12 -12.5 -32 -12.5q-20 0 -32 12.5q-12 12.5 -12 34.5v660q0 22 12 34.5q12 12.5 32 12.5q20 0 32 -12.5q12 -12.5 12 -34.5v-282q0 -74 27.5 -106.5q27.5 -32.5 95.5 -32.5q68 0 95.5 32.5q27.5 32.5 27.5 106.5v282q0 22 12 34.5q12 12.5 32 12.5q20 0 32 -12.5q12 -12.5 12 -34.5l0 -450z" />
<glyph unicode="&#1025;" horiz-adv-x="444" d="M401 41q0 -21 -12 -31q-12 -10 -31 -10h-253q-25 0 -36 14q-11 14 -11 34v616q0 20 11 34q11 14 36 14h253q19 0 31 -10q12 -10 12 -31q0 -21 -12 -31q-12 -10 -31 -10h-212v-233h193q19 0 31 -10q12 -10 12 -31q0 -21 -12 -31q-12 -10 -31 -10h-193v-233h212q19 0 31 -10q12 -10 12 -31zt0 0zM379 818q0 -23 -15.5 -38.5q-15.5 -15.5 -38.5 -15.5q-23 0 -38.5 15.5q-15.5 15.5 -15.5 38.5q0 23 15.5 38.5q15.5 15.5 38.5 15.5q23 0 38.5 -15.5q15.5 -15.5 15.5 -38.5zt0 0zM193 818q0 -23 -15.5 -38.5q-15.5 -15.5 -38.5 -15.5q-23 0 -38.5 15.5q-15.5 15.5 -15.5 38.5q0 23 15.5 38.5q15.5 15.5 38.5 15.5q23 0 38.5 -15.5t15.5 -38.5z" />
<glyph unicode="&#1026;" horiz-adv-x="630" d="M365 -6q-18 0 -31 13q-13 13 -13 31q0 18 13 31q13 13 31 13q28 0 55 3.5q27 3.5 47 18q20 14.5 32.5 42.5q12.5 28 12.5 78q0 39 -10.5 65q-10.5 26 -30 41.5q-19.5 15.5 -46 22.5q-26.5 7 -59.5 7h-110v-319q0 -22 -12 -34.5q-12 -12.5 -32 -12.5q-20 0 -32 12.5q-12 12.5 -12 34.5v589h-123q-19 0 -31 10q-12 10 -12 31q0 21 12 31q12 10 31 10h384q19 0 31 -10q12 -10 12 -31q0 -21 -12 -31q-12 -10 -31 -10h-173v-194h116q49 0 90.5 -9.5q41.5 -9.5 72 -33.5q30.5 -24 48 -64q17.5 -40 17.5 -100q0 -70 -17 -115.5q-17 -45.5 -47.5 -72q-30.5 -26.5 -74 -37t-96.5 -10.5z" />
<glyph unicode="&#1027;" horiz-adv-x="407" d="M398 671q0 -21 -12 -31q-12 -10 -31 -10h-209v-589q0 -22 -12 -34.5q-12 -12.5 -32 -12.5q-20 0 -32 12.5q-12 12.5 -12 34.5v623q0 20 11 34q11 14 36 14h250q19 0 31 -10q12 -10 12 -31zt0 0zM353 860q0 -9 -7 -19q-7 -10 -28 -18l-115 -47q-13 -5 -20 -7q-7 -2 -14 -2q-20 0 -29 15.5q-9 15.5 -9 26.5q0 9 7 19q7 10 28 18l115 47q13 5 20 7q7 2 14 2q20 0 29 -15.5t9 -26.5z" />
<glyph unicode="&#1028;" horiz-adv-x="593" d="M569 93q0 -17 -17.5 -34.5q-17.5 -17.5 -48.5 -32q-31 -14.5 -72 -23.5q-41 -9 -88 -9q-77 0 -135.5 30.5q-58.5 30.5 -97.5 81q-39 50.5 -59 116q-20 65.5 -20 134.5q0 69 20 134.5q20 65.5 59.5 116q39.5 50.5 99 81q59.5 30.5 138.5 30.5q47 0 85 -11q38 -11 65 -27.5q27 -16.5 41.5 -34.5q14.5 -18 14.5 -31q0 -17 -9.5 -29.5q-9.5 -12.5 -26.5 -12.5q-15 0 -28 11q-13 11 -31 24q-18 13 -44 24q-26 11 -67 11q-53 0 -92.5 -21q-39.5 -21 -66.5 -55q-27 -34 -42.5 -78.5q-15.5 -44.5 -19.5 -90.5l270 0q19 0 31 -10q12 -10 12 -31q0 -21 -12 -31q-12 -10 -31 -10h-270q4 -47 19.5 -91q15.5 -44 42 -78q26.5 -34 65 -55q38.5 -21 89.5 -21q40 0 69.5 10q29.5 10 52 22q22.5 12 39 22q16.5 10 30.5 10q16 0 25.5 -11t9.5 -30z" />
<glyph unicode="&#1029;" horiz-adv-x="481" d="M460 219q0 -44 -16 -85q-16 -41 -46.5 -72q-30.5 -31 -75.5 -49.5q-45 -18.5 -103 -18.5q-35 0 -71 7q-36 7 -65 19.5q-29 12.5 -47 29q-18 16.5 -18 35.5q0 14 10.5 27q10.5 13 29.5 13q11 0 25 -8.5q14 -8.5 33.5 -19q19.5 -10.5 44.5 -19q25 -8.5 59 -8.5q34 0 61 11.5q27 11.5 46 31.5q19 20 29 46q10 26 10 56q0 42 -25 66q-25 24 -62.5 40q-37.5 16 -81.5 30q-44 14 -81.5 35.5q-37.5 21.5 -62.5 56q-25 34.5 -25 92.5q0 31 14 63.5q14 32.5 41 59q27 26.5 66 43.5q39 17 89 17q33 0 64.5 -6.5q31.5 -6.5 56 -18q24.5 -11.5 39.5 -26.5q15 -15 15 -32q0 -16 -10.5 -27.5q-10.5 -11.5 -27.5 -11.5q-15 0 -26 7q-11 7 -25.5 16q-14.5 9 -35 16q-20.5 7 -53.5 7q-49 0 -81 -28q-32 -28 -32 -73q0 -39 25 -61.5q25 -22.5 62.5 -38.5q37.5 -16 81.5 -30q44 -14 81.5 -36.5q37.5 -22.5 62.5 -59t25 -96.5z" />
<glyph unicode="&#1030;" horiz-adv-x="204" d="M146 41q0 -22 -12 -34.5q-12 -12.5 -32 -12.5q-20 0 -32 12.5q-12 12.5 -12 34.5v630q0 22 12 34.5q12 12.5 32 12.5q20 0 32 -12.5q12 -12.5 12 -34.5l0 -630z" />
<glyph unicode="&#1031;" horiz-adv-x="204" d="M146 41q0 -22 -12 -34.5q-12 -12.5 -32 -12.5q-20 0 -32 12.5q-12 12.5 -12 34.5v630q0 22 12 34.5q12 12.5 32 12.5q20 0 32 -12.5q12 -12.5 12 -34.5zM249 818q0 -23 -15.5 -38.5q-15.5 -15.5 -38.5 -15.5q-23 0 -38.5 15.5q-15.5 15.5 -15.5 38.5q0 23 15.5 38.5q15.5 15.5 38.5 15.5q23 0 38.5 -15.5q15.5 -15.5 15.5 -38.5zt0 0zM63 818q0 -23 -15.5 -38.5q-15.5 -15.5 -38.5 -15.5q-23 0 -38.5 15.5q-15.5 15.5 -15.5 38.5q0 23 15.5 38.5q15.5 15.5 38.5 15.5q23 0 38.5 -15.5t15.5 -38.5z" />
<glyph unicode="&#1032;" horiz-adv-x="370" d="M312 181q0 -42 -9.5 -76.5q-9.5 -34.5 -30 -59q-20.5 -24.5 -53.5 -38q-33 -13.5 -80 -13.5q-18 0 -43 5q-25 5 -48 15.5q-23 10.5 -39 25q-16 14.5 -16 34.5q0 17 9.5 27q9.5 10 25.5 10q15 0 24.5 -6.5q9.5 -6.5 21 -14q11.5 -7.5 27.5 -14q16 -6.5 45 -6.5q23 0 38 8q15 8 24 22q9 14 12.5 32.5q3.5 18.5 3.5 39.5v499q0 22 12 34.5q12 12.5 32 12.5q20 0 32 -12.5q12 -12.5 12 -34.5l0 -490z" />
<glyph unicode="&#1033;" horiz-adv-x="964" d="M940 213q0 -46 -15.5 -85q-15.5 -39 -45 -67.5q-29.5 -28.5 -73 -44.5q-43.5 -16 -99.5 -16h-172q-20 0 -32 13.5q-12 13.5 -12 39.5v583h-225v-280q0 -99 -17 -167.5q-17 -68.5 -46.5 -112q-29.5 -43.5 -68.5 -63q-39 -19.5 -83 -19.5q-19 0 -31 10q-12 10 -12 31q0 21 12 31q12 10 31 10q21 0 43.5 14q22.5 14 41 47q18.5 33 30.5 86.5q12 53.5 12 132.5v303q0 26 12 39.5q12 13.5 32 13.5h313q20 0 32 -10.5q12 -10.5 12 -36.5v-256h124q120 0 178.5 -54.5q58.5 -54.5 58.5 -141.5zt0 0zM852 213q0 55 -38 87.5q-38 32.5 -107 32.5h-128v-251h124q65 0 107 33.5t42 97.5z" />
<glyph unicode="&#1034;" horiz-adv-x="964" d="M940 213q0 -46 -15.5 -85q-15.5 -39 -45 -67.5q-29.5 -28.5 -73 -44.5q-43.5 -16 -99.5 -16h-172q-20 0 -32 13.5q-12 13.5 -12 39.5v280h-345v-286q0 -26 -12 -39.5q-12 -13.5 -32 -13.5q-20 0 -32 13.5q-12 13.5 -12 39.5v618q0 26 12 39.5q12 13.5 32 13.5q20 0 32 -13.5q12 -13.5 12 -39.5v-256h345v256q0 26 12 39.5q12 13.5 32 13.5q20 0 32 -13.5q12 -13.5 12 -39.5v-256h124q120 0 178.5 -54.5q58.5 -54.5 58.5 -141.5zt0 0zM852 213q0 55 -38 87.5q-38 32.5 -107 32.5h-128v-251h124q65 0 107 33.5t42 97.5z" />
<glyph unicode="&#1035;" horiz-adv-x="642" d="M598 47q0 -26 -12 -39.5q-12 -13.5 -32 -13.5q-20 0 -32 13.5q-12 13.5 -12 39.5v187q0 70 -40.5 98q-40.5 28 -105.5 28h-108v-319q0 -22 -12 -34.5q-12 -12.5 -32 -12.5q-20 0 -32 12.5q-12 12.5 -12 34.5v589h-123q-19 0 -31 10q-12 10 -12 31q0 21 12 31q12 10 31 10h384q19 0 31 -10q12 -10 12 -31q0 -21 -12 -31q-12 -10 -31 -10h-173v-194h120q49 0 89.5 -11q40.5 -11 70 -33.5q29.5 -22.5 46 -57q16.5 -34.5 16.5 -80.5l0 -207z" />
<glyph unicode="&#1036;" horiz-adv-x="574" d="M564 33q0 -16 -12.5 -27.5q-12.5 -11.5 -30.5 -11.5q-10 0 -19.5 3q-9.5 3 -23.5 16l-332 326v-298q0 -22 -12 -34.5q-12 -12.5 -32 -12.5q-20 0 -32 12.5q-12 12.5 -12 34.5v630q0 22 12 34.5q12 12.5 32 12.5q20 0 32 -12.5q12 -12.5 12 -34.5v-260l305 279q12 11 23 19.5q11 8.5 25 8.5q17 0 27.5 -10.5q10.5 -10.5 10.5 -27.5q0 -17 -5 -25q-5 -8 -13 -15l-292 -263l319 -308q11 -10 14.5 -18q3.5 -8 3.5 -18zt0 0zM423 860q0 -9 -7 -19q-7 -10 -28 -18l-115 -47q-13 -5 -20 -7q-7 -2 -14 -2q-20 0 -29 15.5q-9 15.5 -9 26.5q0 9 7 19q7 10 28 18l115 47q13 5 20 7q7 2 14 2q20 0 29 -15.5t9 -26.5z" />
<glyph unicode="&#1038;" horiz-adv-x="500" d="M489 677q0 -10 -4 -18l-280 -640q-6 -14 -16 -19.5q-10 -5.5 -21 -5.5q-17 0 -30 11.5q-13 11.5 -13 29.5q0 10 4 18l76 173l-189 433q-4 8 -4 18q0 18 13.5 29.5q13.5 11.5 30.5 11.5q11 0 20.5 -5.5q9.5 -5.5 15.5 -19.5l158 -363l159 363q6 14 15.5 19.5q9.5 5.5 20.5 5.5q17 0 30.5 -11.5q13.5 -11.5 13.5 -29.5zt0 0zM250 818q23 0 37 9q14 9 24.5 19.5q10.5 10.5 19.5 19.5q9 9 23 9q14 0 25 -10.5q11 -10.5 11 -25.5q0 -16 -10.5 -33q-10.5 -17 -29.5 -31.5q-19 -14.5 -44.5 -23.5q-25.5 -9 -55.5 -9q-30 0 -55.5 9q-25.5 9 -44.5 23.5q-19 14.5 -29.5 31.5q-10.5 17 -10.5 33q0 15 11 25.5q11 10.5 25 10.5q13 0 22.5 -9q9.5 -9 20 -19.5q10.5 -10.5 24.5 -19.5t37 -9z" />
<glyph unicode="&#1039;" horiz-adv-x="667" d="M609 53q0 -26 -12 -39.5q-12 -13.5 -32 -13.5h-187v-163q0 -26 -12 -39.5q-12 -13.5 -32 -13.5q-20 0 -32 13.5q-12 13.5 -12 39.5v163h-188q-20 0 -32 13.5q-12 13.5 -12 39.5v612q0 26 12 39.5q12 13.5 32 13.5q20 0 32 -13.5q12 -13.5 12 -39.5v-589h375v589q0 26 12 39.5q12 13.5 32 13.5q20 0 32 -13.5q12 -13.5 12 -39.5l0 -612z" />
<glyph unicode="&#1040;" horiz-adv-x="612" d="M602 31q0 -17 -12.5 -27q-12.5 -10 -29.5 -10q-18 0 -28 9.5q-10 9.5 -15 23.5l-46 128h-330l-46 -128q-5 -14 -15 -23.5q-10 -9.5 -28 -9.5q-17 0 -29.5 10q-12.5 10 -12.5 27q0 9 5 23q5 14 7 21l221 589q9 23 23 38.5q14 15.5 40 15.5q26 0 40 -15.5q14 -15.5 23 -38.5l221 -589q2 -7 7 -21q5 -14 5 -23zt0 0zM307 616h-2l-137 -385l276 0z" />
<glyph unicode="&#1041;" horiz-adv-x="537" d="M507 216q0 -46 -15.5 -85.5q-15.5 -39.5 -45 -68.5q-29.5 -29 -73 -45.5q-43.5 -16.5 -99.5 -16.5h-169q-25 0 -36 14q-11 14 -11 34v616q0 20 11 34q11 14 36 14h303q19 0 31 -10q12 -10 12 -31q0 -21 -12 -31q-12 -10 -31 -10h-262v-209h124q60 0 104.5 -15.5q44.5 -15.5 74 -43.5q29.5 -28 44 -65.5q14.5 -37.5 14.5 -80.5zt0 0zM419 216q0 55 -38 89q-38 34 -107 34h-128v-257h124q65 0 107 35t42 99z" />
<glyph unicode="&#1042;" horiz-adv-x="537" d="M507 208q0 -42 -15.5 -80q-15.5 -38 -45 -66.5q-29.5 -28.5 -73 -45q-43.5 -16.5 -99.5 -16.5h-169q-25 0 -36 14q-11 14 -11 34v616q0 20 11 34q11 14 36 14h155q47 0 83 -15q36 -15 60 -39.5q24 -24.5 36.5 -55q12.5 -30.5 12.5 -60.5q0 -59 -27.5 -100.5q-27.5 -41.5 -71.5 -55.5l0 -2q32 -3 60 -18q28 -15 49 -38q21 -23 33 -54q12 -31 12 -66zt0 0zM364 526q0 48 -28 79q-28 31 -87 31h-103v-225h100q57 0 87.5 33q30.5 33 30.5 82zt0 0zM419 208q0 27 -9.5 51q-9.5 24 -28.5 42q-19 18 -46 28q-27 10 -61 10h-128v-263h124q65 0 107 36t42 96z" />
<glyph unicode="&#1043;" horiz-adv-x="407" d="M398 671q0 -21 -12 -31q-12 -10 -31 -10h-209v-589q0 -22 -12 -34.5q-12 -12.5 -32 -12.5q-20 0 -32 12.5q-12 12.5 -12 34.5v623q0 20 11 34q11 14 36 14h250q19 0 31 -10t12 -31z" />
<glyph unicode="&#1044;" horiz-adv-x="700" d="M685 -133q0 -26 -12 -39.5q-12 -13.5 -32 -13.5q-20 0 -32 13.5q-12 13.5 -12 39.5v133h-499v-133q0 -26 -12 -39.5q-12 -13.5 -32 -13.5q-20 0 -32 13.5q-12 13.5 -12 39.5v168q0 20 12 30.5q12 10.5 31 10.5h41q31 55 49.5 113.5q18.5 58.5 28.5 122q10 63.5 13.5 132.5q3.5 69 3.5 145v70q0 26 12 39.5q12 13.5 32 13.5h315q20 0 32 -13.5q12 -13.5 12 -39.5v-583h50q19 0 31 -10.5q12 -10.5 12 -30.5zM504 636h-223v-47q0 -153 -17 -280q-17 -127 -71 -233l311 0z" />
<glyph unicode="&#1045;" horiz-adv-x="444" d="M401 41q0 -21 -12 -31q-12 -10 -31 -10h-253q-25 0 -36 14q-11 14 -11 34v616q0 20 11 34q11 14 36 14h253q19 0 31 -10q12 -10 12 -31q0 -21 -12 -31q-12 -10 -31 -10h-212v-233h193q19 0 31 -10q12 -10 12 -31q0 -21 -12 -31q-12 -10 -31 -10h-193v-233h212q19 0 31 -10t12 -31z" />
<glyph unicode="&#1046;" horiz-adv-x="942" d="M932 33q0 -16 -12.5 -27.5q-12.5 -11.5 -30.5 -11.5q-10 0 -19.5 3q-9.5 3 -23.5 16l-332 326v-298q0 -22 -12 -34.5q-12 -12.5 -32 -12.5q-20 0 -32 12.5q-12 12.5 -12 34.5v298l-332 -326q-13 -13 -23 -16q-10 -3 -20 -3q-18 0 -30.5 11.5q-12.5 11.5 -12.5 27.5q0 10 3.5 18q3.5 8 14.5 18l319 308l-292 263q-8 7 -13 15q-5 8 -5 25q0 17 10.5 27.5q10.5 10.5 27.5 10.5q14 0 25 -8.5q11 -8.5 23 -19.5l305 -279v260q0 22 12 34.5q12 12.5 32 12.5q20 0 32 -12.5q12 -12.5 12 -34.5v-260l305 279q12 11 23 19.5q11 8.5 25 8.5q17 0 27.5 -10.5q10.5 -10.5 10.5 -27.5q0 -17 -5 -25q-5 -8 -13 -15l-292 -263l319 -308q11 -10 14.5 -18t3.5 -18z" />
<glyph unicode="&#1047;" horiz-adv-x="500" d="M229 718q50 0 88.5 -13.5q38.5 -13.5 64.5 -38q26 -24.5 39.5 -58q13.5 -33.5 13.5 -73.5q0 -45 -24 -85.5q-24 -40.5 -66 -66.5q60 -18 91 -64q31 -46 31 -103q0 -44 -16 -84.5q-16 -40.5 -46.5 -71q-30.5 -30.5 -75.5 -48.5q-45 -18 -103 -18q-35 0 -70.5 6.5q-35.5 6.5 -64 18q-28.5 11.5 -46 27q-17.5 15.5 -17.5 34.5q0 18 9 31.5q9 13.5 28 13.5q11 0 25 -8.5q14 -8.5 33.5 -19q19.5 -10.5 44.5 -19q25 -8.5 59 -8.5q34 0 61 11.5q27 11.5 46 30.5q19 19 29 44q10 25 10 52q0 37 -10 61.5q-10 24.5 -29 39q-19 14.5 -46 20.5q-27 6 -61 6h-36q-16 0 -27 11q-11 11 -11 27q0 16 11 27q11 11 27 11h36q24 0 45 9.5q21 9.5 36 26.5q15 17 24 39q9 22 9 48q0 53 -30 80.5q-30 27.5 -79 27.5q-33 0 -54 -8q-21 -8 -36 -17q-15 -9 -27 -17q-12 -8 -27 -8q-17 0 -27.5 11.5q-10.5 11.5 -10.5 27.5q0 17 15.5 33q15.5 16 41 28q25.5 12 57.5 19t65 7z" />
<glyph unicode="&#1048;" horiz-adv-x="667" d="M609 41q0 -22 -12 -34.5q-12 -12.5 -32 -12.5q-20 0 -32 12.5q-12 12.5 -12 34.5v516h-2l-359 -517q-18 -26 -30 -36q-12 -10 -32 -10q-19 0 -29.5 14.5q-10.5 14.5 -10.5 37.5v625q0 22 12 34.5q12 12.5 32 12.5q20 0 32 -12.5q12 -12.5 12 -34.5v-516h2l359 517q18 26 30 36q12 10 32 10q18 0 29 -13.5q11 -13.5 11 -38.5l0 -625z" />
<glyph unicode="&#1049;" horiz-adv-x="667" d="M609 41q0 -22 -12 -34.5q-12 -12.5 -32 -12.5q-20 0 -32 12.5q-12 12.5 -12 34.5v516h-2l-359 -517q-18 -26 -30 -36q-12 -10 -32 -10q-19 0 -29.5 14.5q-10.5 14.5 -10.5 37.5v625q0 22 12 34.5q12 12.5 32 12.5q20 0 32 -12.5q12 -12.5 12 -34.5v-516h2l359 517q18 26 30 36q12 10 32 10q18 0 29 -13.5q11 -13.5 11 -38.5zM332 818q23 0 37 9q14 9 24.5 19.5q10.5 10.5 19.5 19.5q9 9 23 9q14 0 25 -10.5q11 -10.5 11 -25.5q0 -16 -10.5 -33q-10.5 -17 -29.5 -31.5q-19 -14.5 -44.5 -23.5q-25.5 -9 -55.5 -9q-30 0 -55.5 9q-25.5 9 -44.5 23.5q-19 14.5 -29.5 31.5q-10.5 17 -10.5 33q0 15 11 25.5q11 10.5 25 10.5q13 0 22.5 -9q9.5 -9 20 -19.5q10.5 -10.5 24.5 -19.5t37 -9z" />
<glyph unicode="&#1050;" horiz-adv-x="574" d="M564 33q0 -16 -12.5 -27.5q-12.5 -11.5 -30.5 -11.5q-10 0 -19.5 3q-9.5 3 -23.5 16l-332 326v-298q0 -22 -12 -34.5q-12 -12.5 -32 -12.5q-20 0 -32 12.5q-12 12.5 -12 34.5v630q0 22 12 34.5q12 12.5 32 12.5q20 0 32 -12.5q12 -12.5 12 -34.5v-260l305 279q12 11 23 19.5q11 8.5 25 8.5q17 0 27.5 -10.5q10.5 -10.5 10.5 -27.5q0 -17 -5 -25q-5 -8 -13 -15l-292 -263l319 -308q11 -10 14.5 -18t3.5 -18z" />
<glyph unicode="&#1051;" horiz-adv-x="667" d="M609 47q0 -26 -12 -39.5q-12 -13.5 -32 -13.5q-20 0 -32 13.5q-12 13.5 -12 39.5v589h-255v-280q0 -99 -17 -167.5q-17 -68.5 -46.5 -112q-29.5 -43.5 -68.5 -63q-39 -19.5 -83 -19.5q-19 0 -31 10q-12 10 -12 31q0 21 12 31q12 10 31 10q21 0 43.5 14q22.5 14 41 47q18.5 33 30.5 86.5q12 53.5 12 132.5v303q0 26 12 39.5q12 13.5 32 13.5h343q20 0 32 -13.5q12 -13.5 12 -39.5l0 -612z" />
<glyph unicode="&#1052;" horiz-adv-x="834" d="M805 39q0 -20 -10.5 -32.5q-10.5 -12.5 -30.5 -12.5q-17 0 -30.5 7.5q-13.5 7.5 -16.5 30.5l-83 572h-2l-170 -574q-7 -22 -18.5 -29q-11.5 -7 -26.5 -7q-15 0 -26.5 7q-11.5 7 -18.5 29l-170 574h-2l-83 -572q-3 -23 -16.5 -30.5q-13.5 -7.5 -30.5 -7.5q-20 0 -30.5 12.5q-10.5 12.5 -10.5 32.5q0 8 1.5 17.5q1.5 9.5 3.5 22.5l97 572q6 38 25.5 52.5q19.5 14.5 43.5 14.5q26 0 41 -10.5q15 -10.5 23 -35.5l152 -521h2l152 521q8 25 23 35.5q15 10.5 41 10.5q24 0 43.5 -14.5q19.5 -14.5 25.5 -52.5l97 -572q2 -13 3.5 -22.5t1.5 -17.5z" />
<glyph unicode="&#1053;" horiz-adv-x="667" d="M609 47q0 -26 -12 -39.5q-12 -13.5 -32 -13.5q-20 0 -32 13.5q-12 13.5 -12 39.5v272h-375v-272q0 -26 -12 -39.5q-12 -13.5 -32 -13.5q-20 0 -32 13.5q-12 13.5 -12 39.5v618q0 26 12 39.5q12 13.5 32 13.5q20 0 32 -13.5q12 -13.5 12 -39.5v-270h375v270q0 26 12 39.5q12 13.5 32 13.5q20 0 32 -13.5q12 -13.5 12 -39.5l0 -618z" />
<glyph unicode="&#1054;" horiz-adv-x="686" d="M655 356q0 -69 -20 -134.5q-20 -65.5 -59.5 -116q-39.5 -50.5 -98 -81q-58.5 -30.5 -134.5 -30.5q-76 0 -134.5 30.5q-58.5 30.5 -98 81q-39.5 50.5 -59.5 116q-20 65.5 -20 134.5q0 69 20 134.5q20 65.5 59.5 116q39.5 50.5 98 81q58.5 30.5 134.5 30.5q76 0 134.5 -30.5q58.5 -30.5 98 -81q39.5 -50.5 59.5 -116q20 -65.5 20 -134.5zt0 0zM561 356q0 51 -11.5 102q-11.5 51 -37.5 92q-26 41 -67.5 66.5q-41.5 25.5 -101.5 25.5q-60 0 -101.5 -25.5q-41.5 -25.5 -67.5 -66.5q-26 -41 -37.5 -92q-11.5 -51 -11.5 -102q0 -51 11.5 -102q11.5 -51 37.5 -92q26 -41 67.5 -66.5q41.5 -25.5 101.5 -25.5q60 0 101.5 25.5q41.5 25.5 67.5 66.5q26 41 37.5 92t11.5 102z" />
<glyph unicode="&#1055;" horiz-adv-x="667" d="M609 47q0 -26 -12 -39.5q-12 -13.5 -32 -13.5q-20 0 -32 13.5q-12 13.5 -12 39.5v589h-375v-589q0 -26 -12 -39.5q-12 -13.5 -32 -13.5q-20 0 -32 13.5q-12 13.5 -12 39.5v612q0 26 12 39.5q12 13.5 32 13.5h463q20 0 32 -13.5q12 -13.5 12 -39.5l0 -612z" />
<glyph unicode="&#1056;" horiz-adv-x="519" d="M510 488q0 -47 -17.5 -87.5q-17.5 -40.5 -48 -70.5q-30.5 -30 -72 -47q-41.5 -17 -90.5 -17h-136v-225q0 -22 -12 -34.5q-12 -12.5 -32 -12.5q-20 0 -32 12.5q-12 12.5 -12 34.5v623q0 20 11 34q11 14 36 14h174q54 0 96.5 -17.5q42.5 -17.5 72.5 -48q30 -30.5 46 -71.5q16 -41 16 -87zt0 0zM422 488q0 26 -8 52.5q-8 26.5 -26 47.5q-18 21 -46.5 34.5q-28.5 13.5 -69.5 13.5h-126v-294h130q33 0 59.5 11.5q26.5 11.5 46 31q19.5 19.5 30 46.5t10.5 57z" />
<glyph unicode="&#1057;" horiz-adv-x="593" d="M569 93q0 -17 -17.5 -34.5q-17.5 -17.5 -48.5 -32q-31 -14.5 -72 -23.5q-41 -9 -88 -9q-77 0 -135.5 30.5q-58.5 30.5 -97.5 81q-39 50.5 -59 116q-20 65.5 -20 134.5q0 69 20 134.5q20 65.5 59.5 116q39.5 50.5 99 81q59.5 30.5 138.5 30.5q47 0 85 -11q38 -11 65 -27.5q27 -16.5 41.5 -34.5q14.5 -18 14.5 -31q0 -17 -9.5 -29.5q-9.5 -12.5 -26.5 -12.5q-15 0 -28 11q-13 11 -31 24q-18 13 -44 24q-26 11 -67 11q-59 0 -101.5 -25.5q-42.5 -25.5 -69.5 -66.5q-27 -41 -39.5 -92q-12.5 -51 -12.5 -102q0 -51 13 -102q13 -51 39.5 -92q26.5 -41 67.5 -66.5q41 -25.5 98 -25.5q40 0 69.5 10q29.5 10 52 22q22.5 12 39 22q16.5 10 30.5 10q16 0 25.5 -11t9.5 -30z" />
<glyph unicode="&#1058;" horiz-adv-x="444" d="M442 671q0 -21 -12 -31q-12 -10 -31 -10h-133v-589q0 -22 -12 -34.5q-12 -12.5 -32 -12.5q-20 0 -32 12.5q-12 12.5 -12 34.5v589h-133q-19 0 -31 10q-12 10 -12 31q0 21 12 31q12 10 31 10h354q19 0 31 -10t12 -31z" />
<glyph unicode="&#1059;" horiz-adv-x="500" d="M489 677q0 -10 -4 -18l-280 -640q-6 -14 -16 -19.5q-10 -5.5 -21 -5.5q-17 0 -30 11.5q-13 11.5 -13 29.5q0 10 4 18l76 173l-189 433q-4 8 -4 18q0 18 13.5 29.5q13.5 11.5 30.5 11.5q11 0 20.5 -5.5q9.5 -5.5 15.5 -19.5l158 -363l159 363q6 14 15.5 19.5q9.5 5.5 20.5 5.5q17 0 30.5 -11.5t13.5 -29.5z" />
<glyph unicode="&#1060;" horiz-adv-x="787" d="M759 356q0 -57 -16.5 -111q-16.5 -54 -49 -96q-32.5 -42 -81 -67.5q-48.5 -25.5 -112.5 -25.5q-17 0 -34 3q-17 3 -27 6l0 -24q0 -22 -12 -34.5q-12 -12.5 -32 -12.5q-20 0 -32 12.5q-12 12.5 -12 34.5v24q-11 -4 -27.5 -6.5q-16.5 -2.5 -33.5 -2.5q-64 0 -112.5 25.5q-48.5 25.5 -81 67.5q-32.5 42 -49 96q-16.5 54 -16.5 111q0 57 16.5 111q16.5 54 49.5 95.5q33 41.5 82 66.5q49 25 115 25q16 0 31 -3q15 -3 26 -7l0 27q0 22 12 34.5q12 12.5 32 12.5q20 0 32 -12.5q12 -12.5 12 -34.5v-27q11 3 26 6.5q15 3.5 31 3.5q66 0 115 -25q49 -25 82 -66.5q33 -41.5 49.5 -95.5q16.5 -54 16.5 -111zt0 0zM665 356q0 39 -9.5 77.5q-9.5 38.5 -29.5 70q-20 31.5 -52.5 51q-32.5 19.5 -77.5 19.5q-18 0 -32 -2.5q-14 -2.5 -25 -7.5l0 -419q13 -4 28 -6.5q15 -2.5 33 -2.5q43 0 74 19.5q31 19.5 51.5 51q20.5 31.5 30 71q9.5 39.5 9.5 78.5zt0 0zM351 564q-11 5 -25 7.5q-14 2.5 -32 2.5q-45 0 -77.5 -19.5q-32.5 -19.5 -52.5 -51q-20 -31.5 -29.5 -70q-9.5 -38.5 -9.5 -77.5q0 -39 9.5 -78.5q9.5 -39.5 30 -71q20.5 -31.5 51.5 -51q31 -19.5 74 -19.5q18 0 33 2.5q15 2.5 28 6.5z" />
<glyph unicode="&#1061;" horiz-adv-x="594" d="M585 31q0 -16 -12.5 -26.5q-12.5 -10.5 -27.5 -10.5q-11 0 -20.5 4.5q-9.5 4.5 -23.5 23.5l-204 291l-204 -291q-14 -19 -23.5 -23.5q-9.5 -4.5 -20.5 -4.5q-15 0 -27.5 10.5q-12.5 10.5 -12.5 26.5q0 11 4.5 20q4.5 9 9.5 16l223 315l-186 263q-14 20 -14 36q0 17 11.5 27q11.5 10 27.5 10q11 0 21.5 -5q10.5 -5 23.5 -23l167 -244l167 244q13 18 23.5 23q10.5 5 21.5 5q16 0 27.5 -10q11.5 -10 11.5 -27q0 -16 -14 -36l-186 -263l223 -315q5 -7 9.5 -16t4.5 -20z" />
<glyph unicode="&#1062;" horiz-adv-x="716" d="M708 -133q0 -26 -12 -39.5q-12 -13.5 -32 -13.5q-20 0 -32 13.5q-12 13.5 -12 39.5v133h-518q-20 0 -32 13.5q-12 13.5 -12 39.5v612q0 26 12 39.5q12 13.5 32 13.5q20 0 32 -13.5q12 -13.5 12 -39.5v-589h375v589q0 26 12 39.5q12 13.5 32 13.5q20 0 32 -13.5q12 -13.5 12 -39.5v-589h56q19 0 31 -10.5q12 -10.5 12 -30.5l0 -168z" />
<glyph unicode="&#1063;" horiz-adv-x="556" d="M498 47q0 -26 -12 -39.5q-12 -13.5 -32 -13.5q-20 0 -32 13.5q-12 13.5 -12 39.5v249q-35 -10 -70.5 -17.5q-35.5 -7.5 -73.5 -7.5q-49 0 -90.5 12.5q-41.5 12.5 -72 37.5q-30.5 25 -48 62q-17.5 37 -17.5 85v197q0 26 12 39.5q12 13.5 32 13.5q20 0 32 -13.5q12 -13.5 12 -39.5v-192q0 -61 40 -93.5q40 -32.5 106 -32.5q38 0 72 7q34 7 66 18l0 293q0 26 12 39.5q12 13.5 32 13.5q20 0 32 -13.5q12 -13.5 12 -39.5l0 -618z" />
<glyph unicode="&#1064;" horiz-adv-x="950" d="M892 53q0 -26 -12 -39.5q-12 -13.5 -32 -13.5h-746q-20 0 -32 13.5q-12 13.5 -12 39.5v612q0 26 12 39.5q12 13.5 32 13.5q20 0 32 -13.5q12 -13.5 12 -39.5v-589h285v589q0 26 12 39.5q12 13.5 32 13.5q20 0 32 -13.5q12 -13.5 12 -39.5v-589h285v589q0 26 12 39.5q12 13.5 32 13.5q20 0 32 -13.5q12 -13.5 12 -39.5l0 -612z" />
<glyph unicode="&#1065;" horiz-adv-x="993" d="M991 -133q0 -26 -12 -39.5q-12 -13.5 -32 -13.5q-20 0 -32 13.5q-12 13.5 -12 39.5v133h-801q-20 0 -32 13.5q-12 13.5 -12 39.5v612q0 26 12 39.5q12 13.5 32 13.5q20 0 32 -13.5q12 -13.5 12 -39.5v-589h285v589q0 26 12 39.5q12 13.5 32 13.5q20 0 32 -13.5q12 -13.5 12 -39.5v-589h285v589q0 26 12 39.5q12 13.5 32 13.5q20 0 32 -13.5q12 -13.5 12 -39.5v-589h56q19 0 31 -10.5q12 -10.5 12 -30.5l0 -168z" />
<glyph unicode="&#1066;" horiz-adv-x="667" d="M637 216q0 -46 -15.5 -85.5q-15.5 -39.5 -45 -68.5q-29.5 -29 -73 -45.5q-43.5 -16.5 -99.5 -16.5h-169q-25 0 -36 14q-11 14 -11 34v582h-143q-19 0 -31 10q-12 10 -12 31q0 21 13 31q13 10 30 10h187q19 0 31.5 -12.5q12.5 -12.5 12.5 -34.5v-244h124q60 0 104.5 -15.5q44.5 -15.5 74 -43.5q29.5 -28 44 -65.5q14.5 -37.5 14.5 -80.5zt0 0zM549 216q0 55 -38 89q-38 34 -107 34h-128v-257h124q65 0 107 35t42 99z" />
<glyph unicode="&#1067;" horiz-adv-x="742" d="M691 41q0 -22 -12 -34.5q-12 -12.5 -32 -12.5q-20 0 -32 12.5q-12 12.5 -12 34.5v630q0 22 12 34.5q12 12.5 32 12.5q20 0 32 -12.5q12 -12.5 12 -34.5zM507 216q0 -46 -15.5 -85.5q-15.5 -39.5 -45 -68.5q-29.5 -29 -73 -45.5q-43.5 -16.5 -99.5 -16.5h-169q-25 0 -36 14q-11 14 -11 34v623q0 22 12 34.5q12 12.5 32 12.5q20 0 32 -12.5q12 -12.5 12 -34.5v-250h124q60 0 104.5 -15.5q44.5 -15.5 74 -43.5q29.5 -28 44 -65.5q14.5 -37.5 14.5 -80.5zt0 0zM419 216q0 55 -38 89q-38 34 -107 34h-128v-257h124q65 0 107 35t42 99z" />
<glyph unicode="&#1068;" horiz-adv-x="537" d="M507 216q0 -46 -15.5 -85.5q-15.5 -39.5 -45 -68.5q-29.5 -29 -73 -45.5q-43.5 -16.5 -99.5 -16.5h-169q-25 0 -36 14q-11 14 -11 34v623q0 22 12 34.5q12 12.5 32 12.5q20 0 32 -12.5q12 -12.5 12 -34.5v-250h124q60 0 104.5 -15.5q44.5 -15.5 74 -43.5q29.5 -28 44 -65.5q14.5 -37.5 14.5 -80.5zt0 0zM419 216q0 55 -38 89q-38 34 -107 34h-128v-257h124q65 0 107 35t42 99z" />
<glyph unicode="&#1069;" horiz-adv-x="593" d="M567 356q0 -69 -20 -134.5q-20 -65.5 -59 -116q-39 -50.5 -97.5 -81q-58.5 -30.5 -135.5 -30.5q-47 0 -88 9q-41 9 -72 23.5q-31 14.5 -48.5 32q-17.5 17.5 -17.5 34.5q0 19 9.5 30q9.5 11 25.5 11q14 0 30.5 -10q16.5 -10 39 -22q22.5 -12 52 -22q29.5 -10 69.5 -10q51 0 89.5 21q38.5 21 65 55q26.5 34 41.5 78q15 44 20 91l-270 0q-19 0 -31 10q-12 10 -12 31q0 21 12 31q12 10 31 10h270q-5 46 -20 90.5q-15 44.5 -42 78.5q-27 34 -66.5 55q-39.5 21 -92.5 21q-41 0 -67 -11q-26 -11 -44 -24q-18 -13 -31 -24q-13 -11 -28 -11q-17 0 -26.5 12.5q-9.5 12.5 -9.5 29.5q0 13 14.5 31q14.5 18 41.5 34.5q27 16.5 65 27.5q38 11 85 11q79 0 138.5 -30.5q59.5 -30.5 99 -81q39.5 -50.5 59.5 -116t20 -134.5z" />
<glyph unicode="&#1070;" horiz-adv-x="916" d="M885 356q0 -69 -20 -134.5q-20 -65.5 -59.5 -116q-39.5 -50.5 -98 -81q-58.5 -30.5 -134.5 -30.5q-71 0 -126.5 26.5q-55.5 26.5 -94.5 71.5q-39 45 -62 104q-23 59 -28 123l-116 0v-272q0 -26 -12 -39.5q-12 -13.5 -32 -13.5q-20 0 -32 13.5q-12 13.5 -12 39.5v618q0 26 12 39.5q12 13.5 32 13.5q20 0 32 -13.5q12 -13.5 12 -39.5v-270h117q5 64 27.5 122.5q22.5 58.5 61.5 103q39 44.5 94.5 71q55.5 26.5 126.5 26.5q76 0 134.5 -30.5q58.5 -30.5 98 -81q39.5 -50.5 59.5 -116q20 -65.5 20 -134.5zt0 0zM791 356q0 51 -11.5 102q-11.5 51 -37.5 92q-26 41 -67.5 66.5q-41.5 25.5 -101.5 25.5q-60 0 -101.5 -25.5q-41.5 -25.5 -67.5 -66.5q-26 -41 -37.5 -92q-11.5 -51 -11.5 -102q0 -51 11.5 -102q11.5 -51 37.5 -92q26 -41 67.5 -66.5q41.5 -25.5 101.5 -25.5q60 0 101.5 25.5q41.5 25.5 67.5 66.5q26 41 37.5 92t11.5 102z" />
<glyph unicode="&#1071;" horiz-adv-x="519" d="M462 41q0 -22 -12 -34.5q-12 -12.5 -32 -12.5q-20 0 -32 12.5q-12 12.5 -12 34.5v271l-272 -298q-8 -8 -17 -14q-9 -6 -23 -6q-17 0 -28.5 10q-11.5 10 -11.5 24q0 22 17 40l227 249l-38 1q-40 1 -75 12.5q-35 11.5 -61.5 35.5q-26.5 24 -42 62q-15.5 38 -15.5 92q0 43 18.5 78.5q18.5 35.5 48.5 61q30 25.5 69.5 39q39.5 13.5 81.5 13.5h163q25 0 36 -14q11 -14 11 -34zM374 636h-118q-31 0 -55.5 -10q-24.5 -10 -42 -26.5q-17.5 -16.5 -27 -38.5q-9.5 -22 -9.5 -47q0 -69 31.5 -100q31.5 -31 100.5 -31l120 0z" />
<glyph unicode="&#1072;" horiz-adv-x="516" d="M458 41q0 -22 -12 -34.5q-12 -12.5 -32 -12.5q-20 0 -32 12.5q-12 12.5 -12 34.5v23h-2q-29 -38 -68 -54q-39 -16 -79 -16q-36 0 -69.5 9q-33.5 9 -59 28q-25.5 19 -40.5 48.5q-15 29.5 -15 70.5q0 62 26.5 98q26.5 36 68.5 54q42 18 94 22.5q52 4.5 103 4.5h42v66q0 34 -25.5 50.5q-25.5 16.5 -68.5 16.5q-32 0 -52 -8.5q-20 -8.5 -34 -18.5q-14 -10 -25.5 -18.5q-11.5 -8.5 -25.5 -8.5q-20 0 -30 11q-10 11 -10 25q0 21 17.5 38q17.5 17 43.5 29.5q26 12.5 57.5 19.5q31.5 7 58.5 7q88 0 134.5 -38q46.5 -38 46.5 -112zM371 261h-19q-42 0 -82.5 -1.5q-40.5 -1.5 -73 -12q-32.5 -10.5 -52 -33q-19.5 -22.5 -19.5 -64.5q0 -22 9.5 -37q9.5 -15 25 -24.5q15.5 -9.5 35.5 -14q20 -4.5 42 -4.5q28 0 52.5 9q24.5 9 42.5 26.5q18 17.5 28.5 44q10.5 26.5 10.5 61.5z" />
<glyph unicode="&#1073;" horiz-adv-x="538" d="M503 266q0 -53 -15.5 -102q-15.5 -49 -45.5 -87q-30 -38 -73.5 -60.5q-43.5 -22.5 -99.5 -22.5q-65 0 -114 30.5q-49 30.5 -78 80.5q-17 28 -25 61.5q-8 33.5 -11.5 66.5q-3.5 33 -3.5 63.5q0 30.5 0 54.5q0 88 20.5 155q20.5 67 54.5 102q14 15 31 28q17 13 43.5 24q26.5 11 67.5 19q41 8 103 13q12 1 19.5 5.5q7.5 4.5 14 9q6.5 4.5 13 8q6.5 3.5 17.5 3.5q16 0 26 -11.5q10 -11.5 10 -25.5q0 -23 -21 -42.5q-21 -19.5 -60 -21.5q-29 -2 -59 -6q-30 -4 -57.5 -10q-27.5 -6 -50.5 -14.5q-23 -8.5 -38 -20.5q-29 -22 -39 -50.5q-10 -28.5 -15 -62.5l2 0q20 40 62.5 62.5q42.5 22.5 87.5 22.5q57 0 100.5 -22.5q43.5 -22.5 73 -60.5q29.5 -38 45 -87q15.5 -49 15.5 -102zt0 0zM415 266q0 34 -7.5 68.5q-7.5 34.5 -25 63q-17.5 28.5 -45.5 46.5q-28 18 -68 18q-41 0 -68.5 -18q-27.5 -18 -45 -46.5q-17.5 -28.5 -25 -63q-7.5 -34.5 -7.5 -68.5q0 -34 7.5 -68.5q7.5 -34.5 25 -63q17.5 -28.5 45 -46.5q27.5 -18 68.5 -18q40 0 68 18q28 18 45.5 46.5q17.5 28.5 25 63t7.5 68.5z" />
<glyph unicode="&#1074;" horiz-adv-x="510" d="M477 155q0 -31 -11.5 -59q-11.5 -28 -33.5 -49.5q-22 -21.5 -54.5 -34q-32.5 -12.5 -74.5 -12.5h-201q-20 0 -32 12.5q-12 12.5 -12 34.5v438q0 22 12 34.5q12 12.5 32 12.5h190q35 0 62 -11.5q27 -11.5 45 -29.5q18 -18 27.5 -41q9.5 -23 9.5 -45q0 -44 -21 -75q-21 -31 -53 -42l0 -1q24 -3 45 -14q21 -11 36.5 -28q15.5 -17 24.5 -40q9 -23 9 -50zt0 0zM348 390q0 29 -17 48.5q-17 19.5 -54 19.5h-131v-140h130q35 0 53.5 21.5q18.5 21.5 18.5 50.5zt0 0zM389 160q0 36 -24 61q-24 25 -68 25h-151v-172h148q42 0 68.5 23.5t26.5 62.5z" />
<glyph unicode="&#1075;" horiz-adv-x="422" d="M414 494q0 -38 -44 -38h-196v-415q0 -22 -12 -34.5q-12 -12.5 -32 -12.5q-20 0 -32 12.5q-12 12.5 -12 34.5v444q0 22 12.5 34.5q12.5 12.5 31.5 12.5h240q44 0 44 -38z" />
<glyph unicode="&#1076;" horiz-adv-x="574" d="M568 -118q0 -22 -12 -34.5q-12 -12.5 -32 -12.5q-20 0 -32 12.5q-12 12.5 -12 34.5v118h-383v-118q0 -22 -12 -34.5q-12 -12.5 -32 -12.5q-20 0 -32 12.5q-12 12.5 -12 34.5v147q0 22 12 34.5q12 12.5 32 12.5h34q34 90 43.5 190q9.5 100 9.5 219q0 19 12 33q12 14 32 14h252q20 0 32 -12.5q12 -12.5 12 -34.5v-409h44q20 0 32 -12.5q12 -12.5 12 -34.5zM392 456h-165q0 -114 -11.5 -206.5q-11.5 -92.5 -38.5 -173.5l215 0z" />
<glyph unicode="&#1077;" horiz-adv-x="520" d="M494 279q0 -23 -10 -35q-10 -12 -39 -12h-331q0 -34 10.5 -63.5q10.5 -29.5 31 -51.5q20.5 -22 49.5 -34.5q29 -12.5 66 -12.5q44 0 73 11q29 11 48.5 24.5q19.5 13.5 33 25q13.5 11.5 25.5 11.5q12 0 22 -10q10 -10 10 -29q0 -16 -18.5 -35q-18.5 -19 -49 -35.5q-30.5 -16.5 -68.5 -27.5q-38 -11 -77 -11q-64 0 -110 22.5q-46 22.5 -76 60.5q-30 38 -44 87q-14 49 -14 102q0 54 16.5 103q16.5 49 47 86.5q30.5 37.5 75 60q44.5 22.5 100.5 22.5q54 0 97 -22.5q43 -22.5 72 -59q29 -36.5 44.5 -83q15.5 -46.5 15.5 -94.5zt0 0zM406 298q0 28 -8.5 57.5q-8.5 29.5 -25.5 53q-17 23.5 -44 38.5q-27 15 -63 15q-41 0 -69 -14q-28 -14 -46 -37.5q-18 -23.5 -26.5 -53q-8.5 -29.5 -9.5 -59.5z" />
<glyph unicode="&#1078;" horiz-adv-x="748" d="M730 29q0 -15 -11.5 -25q-11.5 -10 -25.5 -10q-16 0 -27.5 8q-11.5 8 -23.5 19l-225 210v-190q0 -22 -12 -34.5q-12 -12.5 -32 -12.5q-20 0 -32 12.5q-12 12.5 -12 34.5v190l-225 -210q-12 -11 -23.5 -19q-11.5 -8 -27.5 -8q-14 0 -25.5 10q-11.5 10 -11.5 25q0 25 21 45l221 207l-196 180q-10 9 -16 18.5q-6 9.5 -6 19.5q0 17 10 28q10 11 27 11q11 0 24.5 -8q13.5 -8 25.5 -19l202 -185v165q0 22 12 34.5q12 12.5 32 12.5q20 0 32 -12.5q12 -12.5 12 -34.5v-165l202 185q12 11 25.5 19q13.5 8 24.5 8q17 0 27 -11q10 -11 10 -28q0 -10 -6 -19.5q-6 -9.5 -16 -18.5l-196 -180l221 -207q21 -20 21 -45z" />
<glyph unicode="&#1079;" horiz-adv-x="450" d="M232 538q75 0 118.5 -39.5q43.5 -39.5 43.5 -102.5q0 -31 -17 -59q-17 -28 -43 -48q39 -17 60 -50q21 -33 21 -76q0 -44 -17 -75.5q-17 -31.5 -44.5 -52.5q-27.5 -21 -63 -31q-35.5 -10 -72.5 -10q-42 0 -78 9.5q-36 9.5 -62 24q-26 14.5 -41 32.5q-15 18 -15 35q0 18 11 29q11 11 25 11q15 0 28.5 -10q13.5 -10 31.5 -22.5q18 -12.5 42.5 -22.5q24.5 -10 60.5 -10q48 0 77.5 23q29.5 23 29.5 65q0 25 -8.5 41q-8.5 16 -23 25q-14.5 9 -34 12.5q-19.5 3.5 -40.5 3.5h-31q-16 0 -27 11q-11 11 -11 27q0 16 11 27q11 11 27 11h29q15 0 30 6q15 6 27 16.5q12 10.5 19.5 25.5q7.5 15 7.5 32q0 33 -21.5 49.5q-21.5 16.5 -55.5 16.5q-32 0 -51 -8.5q-19 -8.5 -32.5 -18.5q-13.5 -10 -24.5 -18.5q-11 -8.5 -25 -8.5q-20 0 -30 11q-10 11 -10 25q0 16 13.5 33q13.5 17 37.5 30.5q24 13.5 56.5 22t70.5 8.5z" />
<glyph unicode="&#1080;" horiz-adv-x="538" d="M480 41q0 -22 -12 -34.5q-12 -12.5 -32 -12.5q-20 0 -32 12.5q-12 12.5 -12 34.5v333h-2l-244 -350q-9 -13 -16.5 -21.5q-7.5 -8.5 -27.5 -8.5q-20 0 -32 12.5q-12 12.5 -12 34.5v450q0 22 12 34.5q12 12.5 32 12.5q20 0 32 -12.5q12 -12.5 12 -34.5v-332h2l244 350q8 12 16 20.5q8 8.5 28 8.5q20 0 32 -12.5q12 -12.5 12 -34.5l0 -450z" />
<glyph unicode="&#1081;" horiz-adv-x="538" d="M480 41q0 -22 -12 -34.5q-12 -12.5 -32 -12.5q-20 0 -32 12.5q-12 12.5 -12 34.5v333h-2l-244 -350q-9 -13 -16.5 -21.5q-7.5 -8.5 -27.5 -8.5q-20 0 -32 12.5q-12 12.5 -12 34.5v450q0 22 12 34.5q12 12.5 32 12.5q20 0 32 -12.5q12 -12.5 12 -34.5v-332h2l244 350q8 12 16 20.5q8 8.5 28 8.5q20 0 32 -12.5q12 -12.5 12 -34.5zM272 661q23 0 37 9q14 9 24.5 19.5q10.5 10.5 19.5 19.5q9 9 23 9q14 0 25 -10.5q11 -10.5 11 -25.5q0 -16 -10.5 -33q-10.5 -17 -29.5 -31.5q-19 -14.5 -44.5 -23.5q-25.5 -9 -55.5 -9q-30 0 -55.5 9q-25.5 9 -44.5 23.5q-19 14.5 -29.5 31.5q-10.5 17 -10.5 33q0 15 11 25.5q11 10.5 25 10.5q13 0 22.5 -9q9.5 -9 20 -19.5q10.5 -10.5 24.5 -19.5t37 -9z" />
<glyph unicode="&#1082;" horiz-adv-x="477" d="M468 29q0 -15 -11.5 -25q-11.5 -10 -25.5 -10q-16 0 -27.5 8q-11.5 8 -23.5 19l-234 210v-190q0 -22 -12 -34.5q-12 -12.5 -32 -12.5q-20 0 -32 12.5q-12 12.5 -12 34.5v450q0 22 12 34.5q12 12.5 32 12.5q20 0 32 -12.5q12 -12.5 12 -34.5v-164l211 184q13 11 26 19q13 8 24 8q17 0 27 -11q10 -11 10 -28q0 -10 -4.5 -18.5q-4.5 -8.5 -17.5 -19.5l-206 -180l231 -207q21 -20 21 -45z" />
<glyph unicode="&#1083;" horiz-adv-x="538" d="M480 41q0 -22 -12 -34.5q-12 -12.5 -32 -12.5q-20 0 -32 12.5q-12 12.5 -12 34.5v415h-170v-174q0 -74 -14.5 -127.5q-14.5 -53.5 -38.5 -88.5q-24 -35 -55.5 -52q-31.5 -17 -65.5 -17q-20 0 -31.5 9.5q-11.5 9.5 -11.5 29.5q0 20 11.5 30q11.5 10 31.5 10q15 0 30.5 12q15.5 12 27.5 37.5q12 25.5 20 64q8 38.5 8 92.5v202q0 24 12 36q12 12 32 12h258q20 0 32 -12.5q12 -12.5 12 -34.5l0 -444z" />
<glyph unicode="&#1084;" horiz-adv-x="696" d="M667 30q0 -13 -12 -24.5q-12 -11.5 -35 -11.5q-14 0 -26 12.5q-12 12.5 -16 32.5l-70 353h-2l-106 -340q-8 -26 -18 -42q-10 -16 -34 -16q-24 0 -34 16q-10 16 -18 42l-106 340h-2l-70 -353q-4 -20 -17 -32.5q-13 -12.5 -31 -12.5q-22 0 -31.5 12.5q-9.5 12.5 -9.5 26.5q0 12 5 34l97 425q5 23 18.5 34.5q13.5 11.5 32.5 11.5q18 0 31.5 -11q13.5 -11 21.5 -35l112 -359h2l112 359q8 24 21.5 35q13.5 11 31.5 11q40 0 51 -46l97 -425q5 -22 5 -37z" />
<glyph unicode="&#1085;" horiz-adv-x="538" d="M480 41q0 -22 -12 -34.5q-12 -12.5 -32 -12.5q-20 0 -32 12.5q-12 12.5 -12 34.5v203h-246v-203q0 -22 -12 -34.5q-12 -12.5 -32 -12.5q-20 0 -32 12.5q-12 12.5 -12 34.5v450q0 22 12 34.5q12 12.5 32 12.5q20 0 32 -12.5q12 -12.5 12 -34.5v-171h246v171q0 22 12 34.5q12 12.5 32 12.5q20 0 32 -12.5q12 -12.5 12 -34.5l0 -450z" />
<glyph unicode="&#1086;" horiz-adv-x="538" d="M503 266q0 -53 -15.5 -102q-15.5 -49 -45.5 -87q-30 -38 -73.5 -60.5q-43.5 -22.5 -99.5 -22.5q-56 0 -99.5 22.5q-43.5 22.5 -73.5 60.5q-30 38 -45.5 87q-15.5 49 -15.5 102q0 53 15.5 102q15.5 49 45.5 87q30 38 73.5 60.5q43.5 22.5 99.5 22.5q56 0 99.5 -22.5q43.5 -22.5 73.5 -60.5q30 -38 45.5 -87q15.5 -49 15.5 -102zt0 0zM415 266q0 34 -7.5 68.5q-7.5 34.5 -25 63q-17.5 28.5 -45.5 46.5q-28 18 -68 18q-41 0 -68.5 -18q-27.5 -18 -45 -46.5q-17.5 -28.5 -25 -63q-7.5 -34.5 -7.5 -68.5q0 -34 7.5 -68.5q7.5 -34.5 25 -63q17.5 -28.5 45 -46.5q27.5 -18 68.5 -18q40 0 68 18q28 18 45.5 46.5q17.5 28.5 25 63t7.5 68.5z" />
<glyph unicode="&#1087;" horiz-adv-x="538" d="M480 41q0 -22 -12 -34.5q-12 -12.5 -32 -12.5q-20 0 -32 12.5q-12 12.5 -12 34.5v415h-246v-415q0 -22 -12 -34.5q-12 -12.5 -32 -12.5q-20 0 -32 12.5q-12 12.5 -12 34.5v444q0 22 12 34.5q12 12.5 32 12.5h334q20 0 32 -12.5q12 -12.5 12 -34.5l0 -444z" />
<glyph unicode="&#1088;" horiz-adv-x="556" d="M521 266q0 -53 -15 -102q-15 -49 -44.5 -87q-29.5 -38 -71.5 -60.5q-42 -22.5 -96 -22.5q-26 0 -48.5 6.5q-22.5 6.5 -40.5 17q-18 10.5 -31 23.5q-13 13 -22 25l-2 0v-235q0 -22 -12 -34.5q-12 -12.5 -32 -12.5q-20 0 -32 12.5q-12 12.5 -12 34.5v660q0 22 12 34.5q12 12.5 32 12.5q20 0 32 -12.5q12 -12.5 12 -34.5v-26h2q38 73 142 73q54 0 96 -22.5q42 -22.5 71.5 -60.5q29.5 -38 44.5 -87q15 -49 15 -102zt0 0zM433 266q0 34 -7.5 68.5q-7.5 34.5 -25 63q-17.5 28.5 -45.5 46.5q-28 18 -68 18q-41 0 -68.5 -18q-27.5 -18 -45 -46.5q-17.5 -28.5 -25 -63q-7.5 -34.5 -7.5 -68.5q0 -34 7.5 -68.5q7.5 -34.5 25 -63q17.5 -28.5 45 -46.5q27.5 -18 68.5 -18q40 0 68 18q28 18 45.5 46.5q17.5 28.5 25 63t7.5 68.5z" />
<glyph unicode="&#1089;" horiz-adv-x="444" d="M418 471q0 -14 -10 -25.5q-10 -11.5 -26 -11.5q-13 0 -23 4.5q-10 4.5 -21 9.5q-11 5 -26 9.5q-15 4.5 -37 4.5q-41 0 -70 -18q-29 -18 -47 -46.5q-18 -28.5 -26.5 -63q-8.5 -34.5 -8.5 -68.5q0 -34 8.5 -68.5q8.5 -34.5 26.5 -63q18 -28.5 47 -46.5q29 -18 70 -18q23 0 38.5 4.5q15.5 4.5 27 10.5q11.5 6 20.5 10.5q9 4.5 20 4.5q15 0 24.5 -9.5q9.5 -9.5 9.5 -27.5q0 -25 -35.5 -47q-35.5 -22 -104.5 -22q-61 0 -106 22.5q-45 22.5 -75 60.5q-30 38 -44.5 87q-14.5 49 -14.5 102q0 53 14.5 102q14.5 49 44.5 87q30 38 75 60.5q45 22.5 106 22.5q68 0 105.5 -20t37.5 -47z" />
<glyph unicode="&#1090;" horiz-adv-x="444" d="M438 494q0 -38 -44 -38h-128v-415q0 -22 -12 -34.5q-12 -12.5 -32 -12.5q-20 0 -32 12.5q-12 12.5 -12 34.5v415h-128q-44 0 -44 38q0 38 44 38h344q44 0 44 -38z" />
<glyph unicode="&#1091;" horiz-adv-x="444" d="M427 501q0 -8 -2 -17q-2 -9 -10 -32l-222 -635q-5 -14 -15.5 -23.5q-10.5 -9.5 -27.5 -9.5q-15 0 -27.5 10q-12.5 10 -12.5 27q0 8 2.5 17q2.5 9 10.5 32l56 149l-150 433q-8 23 -10 32q-2 9 -2 17q0 17 12.5 27q12.5 10 27.5 10q17 0 28 -9.5q11 -9.5 16 -23.5l122 -365h2l120 365q5 14 15 23.5q10 9.5 27 9.5q15 0 27.5 -10t12.5 -27z" />
<glyph unicode="&#1092;" horiz-adv-x="840" d="M809 266q0 -53 -14.5 -102q-14.5 -49 -41.5 -87q-27 -38 -66.5 -60.5q-39.5 -22.5 -90.5 -22.5q-46 0 -78.5 21q-32.5 21 -50.5 44l-2 0v-228q0 -22 -12 -34.5q-12 -12.5 -32 -12.5q-20 0 -32 12.5q-12 12.5 -12 34.5v228h-2q-18 -23 -50.5 -44q-32.5 -21 -78.5 -21q-51 0 -90.5 22.5q-39.5 22.5 -66.5 60.5q-27 38 -41.5 87q-14.5 49 -14.5 102q0 53 14.5 102q14.5 49 41.5 87q27 38 66.5 60.5q39.5 22.5 90.5 22.5q91 0 129 -64l2 0v197q0 22 12 34.5q12 12.5 32 12.5q20 0 32 -12.5q12 -12.5 12 -34.5v-197h2q38 64 129 64q51 0 90.5 -22.5q39.5 -22.5 66.5 -60.5q27 -38 41.5 -87q14.5 -49 14.5 -102zt0 0zM721 266q0 34 -7 68.5q-7 34.5 -23.5 63q-16.5 28.5 -43 46.5q-26.5 18 -64.5 18q-46 0 -74.5 -25q-28.5 -25 -43.5 -63l0 -215q15 -38 43.5 -63.5q28.5 -25.5 74.5 -25.5q38 0 64.5 18q26.5 18 43 46.5q16.5 28.5 23.5 63q7 34.5 7 68.5zt0 0zM377 374q-15 38 -43.5 63q-28.5 25 -74.5 25q-38 0 -64.5 -18q-26.5 -18 -43 -46.5q-16.5 -28.5 -23.5 -63q-7 -34.5 -7 -68.5q0 -34 7 -68.5q7 -34.5 23.5 -63q16.5 -28.5 43 -46.5q26.5 -18 64.5 -18q46 0 74.5 25.5q28.5 25.5 43.5 63.5z" />
<glyph unicode="&#1093;" horiz-adv-x="464" d="M458 34q0 -17 -11.5 -28.5q-11.5 -11.5 -28.5 -11.5q-25 0 -39 20l-147 204l-147 -204q-14 -20 -39 -20q-17 0 -28.5 11.5q-11.5 11.5 -11.5 28.5q0 8 3.5 18q3.5 10 14.5 24l157 206l-138 181q-15 19 -15 35q0 17 10.5 28.5q10.5 11.5 26.5 11.5q15 0 23 -6q8 -6 15 -14l129 -172l129 172q7 8 15 14q8 6 23 6q16 0 26.5 -11.5q10.5 -11.5 10.5 -28.5q0 -16 -15 -35l-138 -181l157 -206q11 -14 14.5 -24t3.5 -18z" />
<glyph unicode="&#1094;" horiz-adv-x="574" d="M568 -118q0 -22 -12 -34.5q-12 -12.5 -32 -12.5q-20 0 -32 12.5q-12 12.5 -12 34.5v118h-378q-20 0 -32 12.5q-12 12.5 -12 34.5v444q0 22 12 34.5q12 12.5 32 12.5q20 0 32 -12.5q12 -12.5 12 -34.5v-415h246v415q0 22 12 34.5q12 12.5 32 12.5q20 0 32 -12.5q12 -12.5 12 -34.5v-415h44q20 0 32 -12.5q12 -12.5 12 -34.5l0 -147z" />
<glyph unicode="&#1095;" horiz-adv-x="500" d="M442 41q0 -22 -12 -34.5q-12 -12.5 -32 -12.5q-20 0 -32 12.5q-12 12.5 -12 34.5v178q-27 -8 -61.5 -11.5q-34.5 -3.5 -60.5 -3.5q-38 0 -70 9.5q-32 9.5 -55 28.5q-23 19 -36 47q-13 28 -13 64v138q0 22 12 34.5q12 12.5 32 12.5q20 0 32 -12.5q12 -12.5 12 -34.5v-126q0 -38 25 -61.5q25 -23.5 72 -23.5q26 0 55.5 3.5q29.5 3.5 55.5 11.5l0 196q0 22 12 34.5q12 12.5 32 12.5q20 0 32 -12.5q12 -12.5 12 -34.5l0 -450z" />
<glyph unicode="&#1096;" horiz-adv-x="788" d="M734 47q0 -22 -12 -34.5q-12 -12.5 -32 -12.5h-588q-20 0 -32 12.5q-12 12.5 -12 34.5v444q0 22 12 34.5q12 12.5 32 12.5q20 0 32 -12.5q12 -12.5 12 -34.5v-415h206v415q0 22 12 34.5q12 12.5 32 12.5q20 0 32 -12.5q12 -12.5 12 -34.5v-415h206v415q0 22 12 34.5q12 12.5 32 12.5q20 0 32 -12.5q12 -12.5 12 -34.5l0 -444z" />
<glyph unicode="&#1097;" horiz-adv-x="834" d="M822 -118q0 -22 -12 -34.5q-12 -12.5 -32 -12.5q-20 0 -32 12.5q-12 12.5 -12 34.5v118h-632q-20 0 -32 12.5q-12 12.5 -12 34.5v444q0 22 12 34.5q12 12.5 32 12.5q20 0 32 -12.5q12 -12.5 12 -34.5v-415h206v415q0 22 12 34.5q12 12.5 32 12.5q20 0 32 -12.5q12 -12.5 12 -34.5v-415h206v415q0 22 12 34.5q12 12.5 32 12.5q20 0 32 -12.5q12 -12.5 12 -34.5v-415h44q20 0 32 -12.5q12 -12.5 12 -34.5l0 -147z" />
<glyph unicode="&#1098;" horiz-adv-x="559" d="M538 168q0 -36 -12 -66.5q-12 -30.5 -35 -53q-23 -22.5 -57 -35.5q-34 -13 -78 -13h-159q-20 0 -32 12.5q-12 12.5 -12 34.5v409h-103q-44 0 -44 38q0 38 44 38h147q20 0 32 -12.5q12 -12.5 12 -34.5v-157h112q46 0 81 -12q35 -12 58 -33.5q23 -21.5 34.5 -51q11.5 -29.5 11.5 -63.5zt0 0zM450 169q0 38 -26 61q-26 23 -75 23h-108v-177h105q46 0 75 24t29 69z" />
<glyph unicode="&#1099;" horiz-adv-x="654" d="M606 41q0 -22 -12 -34.5q-12 -12.5 -32 -12.5q-20 0 -32 12.5q-12 12.5 -12 34.5v450q0 22 12 34.5q12 12.5 32 12.5q20 0 32 -12.5q12 -12.5 12 -34.5zM443 168q0 -36 -12 -66.5q-12 -30.5 -35 -53q-23 -22.5 -57 -35.5q-34 -13 -78 -13h-159q-20 0 -32 12.5q-12 12.5 -12 34.5v444q0 22 12 34.5q12 12.5 32 12.5q20 0 32 -12.5q12 -12.5 12 -34.5v-163h112q46 0 81 -12q35 -12 58 -33.5q23 -21.5 34.5 -51q11.5 -29.5 11.5 -63.5zt0 0zM355 169q0 38 -26 61q-26 23 -75 23h-108v-177h105q46 0 75 24t29 69z" />
<glyph unicode="&#1100;" horiz-adv-x="464" d="M443 168q0 -36 -12 -66.5q-12 -30.5 -35 -53q-23 -22.5 -57 -35.5q-34 -13 -78 -13h-159q-20 0 -32 12.5q-12 12.5 -12 34.5v444q0 22 12 34.5q12 12.5 32 12.5q20 0 32 -12.5q12 -12.5 12 -34.5v-163h112q46 0 81 -12q35 -12 58 -33.5q23 -21.5 34.5 -51q11.5 -29.5 11.5 -63.5zt0 0zM355 169q0 38 -26 61q-26 23 -75 23h-108v-177h105q46 0 75 24t29 69z" />
<glyph unicode="&#1101;" horiz-adv-x="444" d="M418 266q0 -53 -14.5 -102q-14.5 -49 -44.5 -87q-30 -38 -75 -60.5q-45 -22.5 -106 -22.5q-69 0 -104.5 22q-35.5 22 -35.5 47q0 18 9.5 27.5q9.5 9.5 24.5 9.5q10 0 19.5 -4.5q9.5 -4.5 21 -10.5q11.5 -6 27 -10.5q15.5 -4.5 38.5 -4.5q37 0 64.5 15.5q27.5 15.5 46 40q18.5 24.5 28.5 55.5q10 31 12 63l-161 0q-44 0 -44 38q0 38 44 38h157q-5 28 -16.5 53.5q-11.5 25.5 -29.5 45q-18 19.5 -43 31.5q-25 12 -58 12q-23 0 -37.5 -4.5q-14.5 -4.5 -26 -9.5q-11.5 -5 -21 -9.5q-9.5 -4.5 -22.5 -4.5q-16 0 -26 11.5q-10 11.5 -10 25.5q0 27 37.5 47q37.5 20 105.5 20q61 0 106 -22.5q45 -22.5 75 -60.5q30 -38 44.5 -87t14.5 -102z" />
<glyph unicode="&#1102;" horiz-adv-x="748" d="M713 266q0 -53 -15.5 -102q-15.5 -49 -45.5 -87q-30 -38 -73.5 -60.5q-43.5 -22.5 -99.5 -22.5q-53 0 -95 20.5q-42 20.5 -71.5 55q-29.5 34.5 -46.5 79.5q-17 45 -20 95l-100 0v-203q0 -22 -12 -34.5q-12 -12.5 -32 -12.5q-20 0 -32 12.5q-12 12.5 -12 34.5v450q0 22 12 34.5q12 12.5 32 12.5q20 0 32 -12.5q12 -12.5 12 -34.5v-171h103q7 45 25.5 84.5q18.5 39.5 47.5 69q29 29.5 68.5 47q39.5 17.5 88.5 17.5q56 0 99.5 -22.5q43.5 -22.5 73.5 -60.5q30 -38 45.5 -87q15.5 -49 15.5 -102zt0 0zM625 266q0 34 -7.5 68.5q-7.5 34.5 -25 63q-17.5 28.5 -45.5 46.5q-28 18 -68 18q-41 0 -68.5 -18q-27.5 -18 -45 -46.5q-17.5 -28.5 -25 -63q-7.5 -34.5 -7.5 -68.5q0 -34 7.5 -68.5q7.5 -34.5 25 -63q17.5 -28.5 45 -46.5q27.5 -18 68.5 -18q40 0 68 18q28 18 45.5 46.5q17.5 28.5 25 63t7.5 68.5z" />
<glyph unicode="&#1103;" horiz-adv-x="480" d="M422 41q0 -22 -12 -34.5q-12 -12.5 -32 -12.5q-20 0 -32 12.5q-12 12.5 -12 34.5v195h-7l-222 -224q-8 -8 -17 -13q-9 -5 -21 -5q-18 0 -29.5 10.5q-11.5 10.5 -11.5 24.5q0 11 3 18q3 7 12 16l171 173l-28 1q-30 1 -56 9.5q-26 8.5 -46 26.5q-20 18 -31.5 46q-11.5 28 -11.5 69q0 33 13.5 59.5q13.5 26.5 36.5 45q23 18.5 52 29q29 10.5 61 10.5h176q20 0 32 -12.5q12 -12.5 12 -34.5zM334 459h-124q-38 0 -60.5 -21.5q-22.5 -21.5 -22.5 -50.5q0 -42 19.5 -61q19.5 -19 62.5 -19l125 0z" />
<glyph unicode="&#1105;" horiz-adv-x="520" d="M494 279q0 -23 -10 -35q-10 -12 -39 -12h-331q0 -34 10.5 -63.5q10.5 -29.5 31 -51.5q20.5 -22 49.5 -34.5q29 -12.5 66 -12.5q44 0 73 11q29 11 48.5 24.5q19.5 13.5 33 25q13.5 11.5 25.5 11.5q12 0 22 -10q10 -10 10 -29q0 -16 -18.5 -35q-18.5 -19 -49 -35.5q-30.5 -16.5 -68.5 -27.5q-38 -11 -77 -11q-64 0 -110 22.5q-46 22.5 -76 60.5q-30 38 -44 87q-14 49 -14 102q0 54 16.5 103q16.5 49 47 86.5q30.5 37.5 75 60q44.5 22.5 100.5 22.5q54 0 97 -22.5q43 -22.5 72 -59q29 -36.5 44.5 -83q15.5 -46.5 15.5 -94.5zt0 0zM406 298q0 28 -8.5 57.5q-8.5 29.5 -25.5 53q-17 23.5 -44 38.5q-27 15 -63 15q-41 0 -69 -14q-28 -14 -46 -37q-18 -23 -26.5 -52.5q-8.5 -29.5 -9.5 -60.5zM409 658q0 -23 -15.5 -38.5q-15.5 -15.5 -38.5 -15.5q-23 0 -38.5 15.5q-15.5 15.5 -15.5 38.5q0 23 15.5 38.5q15.5 15.5 38.5 15.5q23 0 38.5 -15.5q15.5 -15.5 15.5 -38.5zt0 0zM223 658q0 -23 -15.5 -38.5q-15.5 -15.5 -38.5 -15.5q-23 0 -38.5 15.5q-15.5 15.5 -15.5 38.5q0 23 15.5 38.5q15.5 15.5 38.5 15.5q23 0 38.5 -15.5t15.5 -38.5z" />
<glyph unicode="&#1106;" horiz-adv-x="547" d="M507 199q0 -68 -15.5 -125q-15.5 -57 -41.5 -106q-26 -49 -62 -89.5q-36 -40.5 -76 -74.5q-14 -11 -23 -15.5q-9 -4.5 -18 -4.5q-11 0 -23.5 10.5q-12.5 10.5 -12.5 30.5q0 11 8 20.5q8 9.5 27 26.5q21 19 47 47.5q26 28.5 48.5 66q22.5 37.5 38 83.5q15.5 46 15.5 100v62q0 35 -11 60q-11 25 -28.5 40.5q-17.5 15.5 -39.5 23q-22 7.5 -44 7.5q-22 0 -44 -7.5q-22 -7.5 -39.5 -23q-17.5 -15.5 -28.5 -40.5q-11 -25 -11 -60v-190q0 -22 -12 -34.5q-12 -12.5 -32 -12.5q-20 0 -32 12.5q-12 12.5 -12 34.5v475h-34q-44 0 -44 38q0 38 44 38h34v79q0 22 12 34.5q12 12.5 32 12.5q20 0 32 -12.5q12 -12.5 12 -34.5v-79h177q44 0 44 -38q0 -38 -44 -38h-177v-146l2 -2q29 38 68 54q39 16 79 16q31 0 63.5 -10.5q32.5 -10.5 59.5 -34.5q27 -24 44.5 -62.5q17.5 -38.5 17.5 -94.5l0 -37z" />
<glyph unicode="&#1107;" horiz-adv-x="422" d="M414 494q0 -38 -44 -38h-196v-415q0 -22 -12 -34.5q-12 -12.5 -32 -12.5q-20 0 -32 12.5q-12 12.5 -12 34.5v444q0 22 12.5 34.5q12.5 12.5 31.5 12.5h240q44 0 44 -38zt0 0zM363 676q0 -9 -7 -19q-7 -10 -28 -18l-115 -47q-13 -5 -20 -7q-7 -2 -14 -2q-20 0 -29 15.5q-9 15.5 -9 26.5q0 9 7 19q7 10 28 18l115 47q13 5 20 7q7 2 14 2q20 0 29 -15.5t9 -26.5z" />
</font>
</defs>
</svg>
